<?xml version="1.0" encoding="UTF-8"?>
<svg xmlns="http://www.w3.org/2000/svg" xmlns:xlink="http://www.w3.org/1999/xlink" width="360" height="360" viewBox="0 0 360 360">
<defs>
<g>
<g id="glyph-0-0">
<path d="M 4.40625 -11.5625 C 3.34375 -11.5625 2.390625 -11.09375 1.796875 -10.296875 C 1.0625 -9.28125 0.6875 -7.75 0.6875 -5.59375 C 0.6875 -1.703125 1.96875 0.375 4.40625 0.375 C 6.796875 0.375 8.109375 -1.703125 8.109375 -5.5 C 8.109375 -7.75 7.765625 -9.25 7.015625 -10.296875 C 6.421875 -11.109375 5.46875 -11.5625 4.40625 -11.5625 Z M 4.40625 -10.3125 C 5.921875 -10.3125 6.671875 -8.765625 6.671875 -5.625 C 6.671875 -2.34375 5.9375 -0.796875 4.375 -0.796875 C 2.875 -0.796875 2.125 -2.40625 2.125 -5.578125 C 2.125 -8.765625 2.875 -10.3125 4.40625 -10.3125 Z M 4.40625 -10.3125 "/>
</g>
<g id="glyph-0-1">
<path d="M 3.0625 -1.65625 L 1.390625 -1.65625 L 1.390625 0 L 3.0625 0 Z M 3.0625 -1.65625 "/>
</g>
<g id="glyph-0-2">
<path d="M 8.09375 -1.390625 L 2.125 -1.390625 C 2.265625 -2.359375 2.78125 -2.953125 4.171875 -3.8125 L 5.78125 -4.703125 C 7.359375 -5.578125 8.171875 -6.765625 8.171875 -8.1875 C 8.171875 -9.15625 7.796875 -10.046875 7.125 -10.671875 C 6.453125 -11.28125 5.609375 -11.5625 4.546875 -11.5625 C 3.109375 -11.5625 2.03125 -11.0625 1.40625 -10.0625 C 1.015625 -9.453125 0.828125 -8.734375 0.796875 -7.5625 L 2.203125 -7.5625 C 2.25 -8.359375 2.359375 -8.8125 2.546875 -9.203125 C 2.90625 -9.90625 3.640625 -10.34375 4.5 -10.34375 C 5.78125 -10.34375 6.734375 -9.40625 6.734375 -8.15625 C 6.734375 -7.234375 6.203125 -6.4375 5.203125 -5.859375 L 3.734375 -4.984375 C 1.359375 -3.625 0.671875 -2.546875 0.546875 -0.015625 L 8.09375 -0.015625 Z M 8.09375 -1.390625 "/>
</g>
<g id="glyph-0-3">
<path d="M 7.609375 -11.34375 L 1.765625 -11.34375 L 0.90625 -5.171875 L 2.203125 -5.171875 C 2.859375 -5.953125 3.40625 -6.21875 4.296875 -6.21875 C 5.828125 -6.21875 6.765625 -5.1875 6.765625 -3.5 C 6.765625 -1.875 5.828125 -0.875 4.28125 -0.875 C 3.0625 -0.875 2.296875 -1.5 1.96875 -2.78125 L 0.5625 -2.78125 C 0.75 -1.859375 0.90625 -1.40625 1.25 -0.984375 C 1.890625 -0.125 3.046875 0.375 4.3125 0.375 C 6.609375 0.375 8.203125 -1.296875 8.203125 -3.703125 C 8.203125 -5.9375 6.71875 -7.46875 4.546875 -7.46875 C 3.75 -7.46875 3.109375 -7.265625 2.453125 -6.78125 L 2.890625 -9.953125 L 7.609375 -9.953125 Z M 7.609375 -11.34375 "/>
</g>
<g id="glyph-0-4">
<path d="M 8.3125 -11.34375 L 0.734375 -11.34375 L 0.734375 -9.953125 L 6.859375 -9.953125 C 4.15625 -6.09375 3.0625 -3.734375 2.203125 0 L 3.71875 0 C 4.34375 -3.625 5.765625 -6.75 8.3125 -10.15625 Z M 8.3125 -11.34375 "/>
</g>
<g id="glyph-0-5">
<path d="M 4.140625 -8.234375 L 4.140625 0 L 5.546875 0 L 5.546875 -11.5625 L 4.625 -11.5625 C 4.125 -9.796875 3.8125 -9.546875 1.625 -9.265625 L 1.625 -8.234375 Z M 4.140625 -8.234375 "/>
</g>
<g id="glyph-0-6">
<path d="M 7.578125 -3.5 L 8.78125 0 L 10.453125 0 L 6.359375 -11.65625 L 4.4375 -11.65625 L 0.265625 0 L 1.859375 0 L 3.09375 -3.5 Z M 7.171875 -4.75 L 3.453125 -4.75 L 5.375 -10.0625 Z M 7.171875 -4.75 "/>
</g>
<g id="glyph-0-7">
<path d="M 0.859375 3.484375 L 2.203125 3.484375 L 2.203125 -0.875 C 2.90625 -0.015625 3.703125 0.375 4.78125 0.375 C 6.953125 0.375 8.375 -1.375 8.375 -4.046875 C 8.375 -6.859375 6.984375 -8.625 4.765625 -8.625 C 3.625 -8.625 2.71875 -8.109375 2.09375 -7.125 L 2.09375 -8.390625 L 0.859375 -8.390625 Z M 4.546875 -7.375 C 6.015625 -7.375 6.96875 -6.078125 6.96875 -4.078125 C 6.96875 -2.171875 6 -0.875 4.546875 -0.875 C 3.125 -0.875 2.203125 -2.15625 2.203125 -4.125 C 2.203125 -6.09375 3.125 -7.375 4.546875 -7.375 Z M 4.546875 -7.375 "/>
</g>
<g id="glyph-0-8">
<path d="M 1.109375 -8.390625 L 1.109375 0 L 2.453125 0 L 2.453125 -4.359375 C 2.46875 -6.375 3.296875 -7.265625 5.140625 -7.21875 L 5.140625 -8.578125 C 4.90625 -8.609375 4.78125 -8.625 4.625 -8.625 C 3.765625 -8.625 3.109375 -8.109375 2.34375 -6.859375 L 2.34375 -8.390625 Z M 1.109375 -8.390625 "/>
</g>
<g id="glyph-0-9">
<path d="M 5.328125 -11.65625 L 5.328125 -3.453125 C 5.328125 -2.53125 5.234375 -2 4.953125 -1.59375 C 4.671875 -1.15625 4.125 -0.875 3.53125 -0.875 C 2.421875 -0.875 1.796875 -1.625 1.796875 -2.984375 L 1.796875 -3.75 L 0.265625 -3.75 L 0.265625 -2.71875 C 0.265625 -0.828125 1.515625 0.375 3.515625 0.375 C 5.546875 0.375 6.8125 -0.890625 6.8125 -2.90625 L 6.8125 -11.65625 Z M 5.328125 -11.65625 "/>
</g>
<g id="glyph-0-10">
<path d="M 7.71875 0 L 7.71875 -8.390625 L 6.390625 -8.390625 L 6.390625 -3.625 C 6.390625 -1.921875 5.484375 -0.796875 4.09375 -0.796875 C 3.046875 -0.796875 2.375 -1.4375 2.375 -2.453125 L 2.375 -8.390625 L 1.046875 -8.390625 L 1.046875 -1.921875 C 1.046875 -0.53125 2.078125 0.375 3.71875 0.375 C 4.9375 0.375 5.734375 -0.0625 6.515625 -1.171875 L 6.515625 0 Z M 7.71875 0 "/>
</g>
<g id="glyph-0-11">
<path d="M 2.4375 -11.65625 L 1.09375 -11.65625 L 1.09375 0 L 2.4375 0 Z M 2.4375 -11.65625 "/>
</g>
<g id="glyph-1-0">
<path d="M 11.921875 -10.296875 C 11.921875 -11.296875 11.859375 -11.578125 11.546875 -12.265625 C 10.734375 -13.9375 9.046875 -14.8125 6.578125 -14.8125 C 3.375 -14.8125 1.40625 -13.1875 1.40625 -10.546875 C 1.40625 -8.765625 2.34375 -7.640625 4.265625 -7.140625 L 7.875 -6.1875 C 9.734375 -5.703125 10.5625 -4.953125 10.5625 -3.8125 C 10.5625 -3.046875 10.140625 -2.234375 9.515625 -1.796875 C 8.9375 -1.375 8.015625 -1.1875 6.84375 -1.1875 C 5.234375 -1.1875 4.1875 -1.5625 3.484375 -2.40625 C 2.9375 -3.046875 2.703125 -3.734375 2.71875 -4.640625 L 0.953125 -4.640625 C 0.984375 -3.296875 1.234375 -2.421875 1.8125 -1.625 C 2.8125 -0.234375 4.5 0.453125 6.71875 0.453125 C 8.453125 0.453125 9.875 0.0625 10.8125 -0.65625 C 11.796875 -1.4375 12.421875 -2.734375 12.421875 -4 C 12.421875 -5.796875 11.296875 -7.125 9.3125 -7.65625 L 5.65625 -8.640625 C 3.90625 -9.125 3.265625 -9.6875 3.265625 -10.796875 C 3.265625 -12.28125 4.5625 -13.265625 6.515625 -13.265625 C 8.84375 -13.265625 10.140625 -12.21875 10.15625 -10.296875 Z M 11.921875 -10.296875 "/>
</g>
<g id="glyph-1-1">
<path d="M 10.703125 -0.984375 C 10.515625 -0.9375 10.4375 -0.9375 10.34375 -0.9375 C 9.765625 -0.9375 9.4375 -1.234375 9.4375 -1.765625 L 9.4375 -7.921875 C 9.4375 -9.78125 8.078125 -10.78125 5.5 -10.78125 C 3.953125 -10.78125 2.734375 -10.34375 2.015625 -9.5625 C 1.546875 -9.015625 1.34375 -8.421875 1.296875 -7.375 L 2.984375 -7.375 C 3.125 -8.65625 3.875 -9.234375 5.4375 -9.234375 C 6.953125 -9.234375 7.78125 -8.6875 7.78125 -7.6875 L 7.78125 -7.234375 C 7.765625 -6.515625 7.40625 -6.265625 6.046875 -6.078125 C 3.6875 -5.78125 3.3125 -5.703125 2.6875 -5.4375 C 1.453125 -4.921875 0.84375 -4 0.84375 -2.640625 C 0.84375 -0.734375 2.15625 0.453125 4.28125 0.453125 C 5.59375 0.453125 6.65625 0 7.84375 -1.078125 C 7.953125 0 8.484375 0.453125 9.5625 0.453125 C 9.921875 0.453125 10.140625 0.421875 10.703125 0.28125 Z M 7.78125 -3.296875 C 7.78125 -2.734375 7.625 -2.40625 7.125 -1.9375 C 6.4375 -1.3125 5.625 -1 4.640625 -1 C 3.34375 -1 2.578125 -1.625 2.578125 -2.6875 C 2.578125 -3.78125 3.296875 -4.34375 5.09375 -4.59375 C 6.875 -4.84375 7.21875 -4.921875 7.78125 -5.1875 Z M 7.78125 -3.296875 "/>
</g>
<g id="glyph-1-2">
<path d="M 1.40625 -10.484375 L 1.40625 0 L 3.078125 0 L 3.078125 -6.578125 C 3.078125 -8.09375 4.1875 -9.3125 5.546875 -9.3125 C 6.78125 -9.3125 7.484375 -8.5625 7.484375 -7.21875 L 7.484375 0 L 9.15625 0 L 9.15625 -6.578125 C 9.15625 -8.09375 10.265625 -9.3125 11.625 -9.3125 C 12.84375 -9.3125 13.5625 -8.546875 13.5625 -7.21875 L 13.5625 0 L 15.234375 0 L 15.234375 -7.859375 C 15.234375 -9.734375 14.15625 -10.78125 12.203125 -10.78125 C 10.796875 -10.78125 9.953125 -10.359375 8.984375 -9.1875 C 8.359375 -10.296875 7.515625 -10.78125 6.15625 -10.78125 C 4.765625 -10.78125 3.8125 -10.265625 2.9375 -9 L 2.9375 -10.484375 Z M 1.40625 -10.484375 "/>
</g>
<g id="glyph-1-3">
<path d="M 1.078125 4.359375 L 2.765625 4.359375 L 2.765625 -1.09375 C 3.640625 -0.015625 4.625 0.453125 5.984375 0.453125 C 8.703125 0.453125 10.453125 -1.71875 10.453125 -5.0625 C 10.453125 -8.578125 8.734375 -10.78125 5.953125 -10.78125 C 4.546875 -10.78125 3.40625 -10.140625 2.625 -8.90625 L 2.625 -10.484375 L 1.078125 -10.484375 Z M 5.6875 -9.21875 C 7.515625 -9.21875 8.71875 -7.59375 8.71875 -5.09375 C 8.71875 -2.71875 7.5 -1.09375 5.6875 -1.09375 C 3.90625 -1.09375 2.765625 -2.703125 2.765625 -5.15625 C 2.765625 -7.625 3.90625 -9.21875 5.6875 -9.21875 Z M 5.6875 -9.21875 "/>
</g>
<g id="glyph-1-4">
<path d="M 3.046875 -14.578125 L 1.359375 -14.578125 L 1.359375 0 L 3.046875 0 Z M 3.046875 -14.578125 "/>
</g>
<g id="glyph-1-5">
<path d="M 10.265625 -4.6875 C 10.265625 -6.28125 10.140625 -7.234375 9.84375 -8.015625 C 9.15625 -9.734375 7.5625 -10.78125 5.59375 -10.78125 C 2.6875 -10.78125 0.796875 -8.5625 0.796875 -5.09375 C 0.796875 -1.640625 2.59375 0.453125 5.5625 0.453125 C 7.953125 0.453125 9.625 -0.90625 10.046875 -3.1875 L 8.359375 -3.1875 C 7.90625 -1.796875 6.953125 -1.078125 5.625 -1.078125 C 4.5625 -1.078125 3.65625 -1.5625 3.09375 -2.4375 C 2.703125 -3.046875 2.5625 -3.640625 2.546875 -4.6875 Z M 2.578125 -6.046875 C 2.71875 -7.984375 3.90625 -9.234375 5.578125 -9.234375 C 7.28125 -9.234375 8.453125 -7.921875 8.453125 -6.046875 Z M 2.578125 -6.046875 "/>
</g>
<g id="glyph-1-6">
</g>
<g id="glyph-1-7">
<path d="M 9.421875 -6.953125 C 9.34375 -7.984375 9.125 -8.640625 8.71875 -9.21875 C 8 -10.203125 6.734375 -10.78125 5.28125 -10.78125 C 2.4375 -10.78125 0.625 -8.546875 0.625 -5.0625 C 0.625 -1.6875 2.421875 0.453125 5.265625 0.453125 C 7.765625 0.453125 9.34375 -1.046875 9.546875 -3.59375 L 7.859375 -3.59375 C 7.578125 -1.921875 6.71875 -1.078125 5.296875 -1.078125 C 3.453125 -1.078125 2.359375 -2.578125 2.359375 -5.0625 C 2.359375 -7.6875 3.4375 -9.234375 5.265625 -9.234375 C 6.65625 -9.234375 7.546875 -8.421875 7.734375 -6.953125 Z M 9.421875 -6.953125 "/>
</g>
<g id="glyph-1-8">
<path d="M 5.4375 -10.78125 C 2.484375 -10.78125 0.71875 -8.6875 0.71875 -5.15625 C 0.71875 -1.625 2.484375 0.453125 5.453125 0.453125 C 8.421875 0.453125 10.203125 -1.640625 10.203125 -5.078125 C 10.203125 -8.71875 8.484375 -10.78125 5.4375 -10.78125 Z M 5.453125 -9.234375 C 7.34375 -9.234375 8.453125 -7.703125 8.453125 -5.09375 C 8.453125 -2.625 7.296875 -1.078125 5.453125 -1.078125 C 3.59375 -1.078125 2.453125 -2.625 2.453125 -5.15625 C 2.453125 -7.703125 3.59375 -9.234375 5.453125 -9.234375 Z M 5.453125 -9.234375 "/>
</g>
<g id="glyph-1-9">
<path d="M 5.078125 -10.484375 L 3.359375 -10.484375 L 3.359375 -13.359375 L 1.703125 -13.359375 L 1.703125 -10.484375 L 0.28125 -10.484375 L 0.28125 -9.125 L 1.703125 -9.125 L 1.703125 -1.203125 C 1.703125 -0.125 2.421875 0.453125 3.71875 0.453125 C 4.15625 0.453125 4.515625 0.421875 5.078125 0.3125 L 5.078125 -1.078125 C 4.84375 -1.015625 4.625 -1 4.28125 -1 C 3.5625 -1 3.359375 -1.203125 3.359375 -1.9375 L 3.359375 -9.125 L 5.078125 -9.125 Z M 5.078125 -10.484375 "/>
</g>
<g id="glyph-1-10">
<path d="M 3 -10.484375 L 1.34375 -10.484375 L 1.34375 0 L 3 0 Z M 3 -14.578125 L 1.3125 -14.578125 L 1.3125 -12.484375 L 3 -12.484375 Z M 3 -14.578125 "/>
</g>
<g id="glyph-1-11">
<path d="M 1.40625 -10.484375 L 1.40625 0 L 3.078125 0 L 3.078125 -5.78125 C 3.078125 -7.921875 4.203125 -9.3125 5.921875 -9.3125 C 7.234375 -9.3125 8.078125 -8.515625 8.078125 -7.265625 L 8.078125 0 L 9.734375 0 L 9.734375 -7.921875 C 9.734375 -9.65625 8.4375 -10.78125 6.421875 -10.78125 C 4.859375 -10.78125 3.859375 -10.1875 2.9375 -8.71875 L 2.9375 -10.484375 Z M 1.40625 -10.484375 "/>
</g>
<g id="glyph-1-12">
<path d="M 9.90625 -14.578125 L 8.234375 -14.578125 L 8.234375 -9.15625 C 7.546875 -10.21875 6.421875 -10.78125 5.015625 -10.78125 C 2.296875 -10.78125 0.515625 -8.59375 0.515625 -5.265625 C 0.515625 -1.71875 2.234375 0.453125 5.078125 0.453125 C 6.515625 0.453125 7.515625 -0.078125 8.421875 -1.375 L 8.421875 0 L 9.90625 0 Z M 5.296875 -9.21875 C 7.09375 -9.21875 8.234375 -7.640625 8.234375 -5.125 C 8.234375 -2.703125 7.078125 -1.09375 5.3125 -1.09375 C 3.484375 -1.09375 2.265625 -2.71875 2.265625 -5.15625 C 2.265625 -7.59375 3.484375 -9.21875 5.296875 -9.21875 Z M 5.296875 -9.21875 "/>
</g>
<g id="glyph-2-0">
<path d="M -10.484375 -8.078125 L -8.953125 -8.078125 C -10.21875 -7.234375 -10.78125 -6.3125 -10.78125 -5 C -10.78125 -2.453125 -8.421875 -0.703125 -5.0625 -0.703125 C -3.296875 -0.703125 -2.015625 -1.125 -0.953125 -2.015625 C -0.046875 -2.796875 0.453125 -3.796875 0.453125 -4.875 C 0.453125 -6.140625 -0.09375 -7.046875 -1.421875 -7.921875 L -0.875 -7.921875 C 1.921875 -7.921875 2.953125 -7.140625 2.953125 -5.0625 C 2.953125 -3.640625 2.40625 -2.90625 1.203125 -2.734375 L 1.203125 -1.046875 C 3.140625 -1.203125 4.359375 -2.734375 4.359375 -5.015625 C 4.359375 -6.5625 3.859375 -7.84375 3.015625 -8.515625 C 2.046875 -9.3125 0.734375 -9.625 -1.71875 -9.625 L -10.484375 -9.625 Z M -9.234375 -5.15625 C -9.234375 -6.921875 -7.765625 -7.921875 -5.09375 -7.921875 C -2.5625 -7.921875 -1.078125 -6.90625 -1.078125 -5.15625 C -1.078125 -3.4375 -2.578125 -2.4375 -5.15625 -2.4375 C -7.71875 -2.4375 -9.234375 -3.4375 -9.234375 -5.15625 Z M -9.234375 -5.15625 "/>
</g>
<g id="glyph-2-1">
<path d="M -10.484375 -1.375 L 0 -1.375 L 0 -3.0625 L -5.4375 -3.0625 C -7.953125 -3.078125 -9.078125 -4.125 -9.015625 -6.421875 L -10.71875 -6.421875 C -10.765625 -6.140625 -10.78125 -5.984375 -10.78125 -5.78125 C -10.78125 -4.703125 -10.140625 -3.875 -8.578125 -2.921875 L -10.484375 -2.921875 Z M -10.484375 -1.375 "/>
</g>
<g id="glyph-2-2">
<path d="M -10.78125 -5.4375 C -10.78125 -2.484375 -8.6875 -0.71875 -5.15625 -0.71875 C -1.625 -0.71875 0.453125 -2.484375 0.453125 -5.453125 C 0.453125 -8.421875 -1.640625 -10.203125 -5.078125 -10.203125 C -8.71875 -10.203125 -10.78125 -8.484375 -10.78125 -5.4375 Z M -9.234375 -5.453125 C -9.234375 -7.34375 -7.703125 -8.453125 -5.09375 -8.453125 C -2.625 -8.453125 -1.078125 -7.296875 -1.078125 -5.453125 C -1.078125 -3.59375 -2.625 -2.453125 -5.15625 -2.453125 C -7.703125 -2.453125 -9.234375 -3.59375 -9.234375 -5.453125 Z M -9.234375 -5.453125 "/>
</g>
<g id="glyph-2-3">
<path d="M 0 -11.078125 L -10.484375 -14.15625 L -10.484375 -12.28125 L -2.3125 -10.203125 L -10.484375 -8.140625 L -10.484375 -6.09375 L -2.3125 -4.09375 L -10.484375 -1.953125 L -10.484375 -0.125 L 0 -3.15625 L 0 -5.046875 L -8.21875 -7.0625 L 0 -9.1875 Z M 0 -11.078125 "/>
</g>
<g id="glyph-2-4">
<path d="M -10.484375 -5.078125 L -10.484375 -3.359375 L -13.359375 -3.359375 L -13.359375 -1.703125 L -10.484375 -1.703125 L -10.484375 -0.28125 L -9.125 -0.28125 L -9.125 -1.703125 L -1.203125 -1.703125 C -0.125 -1.703125 0.453125 -2.421875 0.453125 -3.71875 C 0.453125 -4.15625 0.421875 -4.515625 0.3125 -5.078125 L -1.078125 -5.078125 C -1.015625 -4.84375 -1 -4.625 -1 -4.28125 C -1 -3.5625 -1.203125 -3.359375 -1.9375 -3.359375 L -9.125 -3.359375 L -9.125 -5.078125 Z M -10.484375 -5.078125 "/>
</g>
<g id="glyph-2-5">
<path d="M -14.578125 -1.40625 L 0 -1.40625 L 0 -3.0625 L -5.78125 -3.0625 C -7.921875 -3.0625 -9.3125 -4.1875 -9.3125 -5.90625 C -9.3125 -6.453125 -9.15625 -6.984375 -8.859375 -7.375 C -8.5 -7.859375 -8 -8.0625 -7.265625 -8.0625 L 0 -8.0625 L 0 -9.71875 L -7.921875 -9.71875 C -9.6875 -9.71875 -10.78125 -8.453125 -10.78125 -6.421875 C -10.78125 -4.9375 -10.3125 -4.046875 -9.046875 -3.0625 L -14.578125 -3.0625 Z M -14.578125 -1.40625 "/>
</g>
<g id="glyph-2-6">
</g>
<g id="glyph-2-7">
<path d="M -0.984375 -10.703125 C -0.9375 -10.515625 -0.9375 -10.4375 -0.9375 -10.34375 C -0.9375 -9.765625 -1.234375 -9.4375 -1.765625 -9.4375 L -7.921875 -9.4375 C -9.78125 -9.4375 -10.78125 -8.078125 -10.78125 -5.5 C -10.78125 -3.953125 -10.34375 -2.734375 -9.5625 -2.015625 C -9.015625 -1.546875 -8.421875 -1.34375 -7.375 -1.296875 L -7.375 -2.984375 C -8.65625 -3.125 -9.234375 -3.875 -9.234375 -5.4375 C -9.234375 -6.953125 -8.6875 -7.78125 -7.6875 -7.78125 L -7.234375 -7.78125 C -6.515625 -7.765625 -6.265625 -7.40625 -6.078125 -6.046875 C -5.78125 -3.6875 -5.703125 -3.3125 -5.4375 -2.6875 C -4.921875 -1.453125 -4 -0.84375 -2.640625 -0.84375 C -0.734375 -0.84375 0.453125 -2.15625 0.453125 -4.28125 C 0.453125 -5.59375 0 -6.65625 -1.078125 -7.84375 C 0 -7.953125 0.453125 -8.484375 0.453125 -9.5625 C 0.453125 -9.921875 0.421875 -10.140625 0.28125 -10.703125 Z M -3.296875 -7.78125 C -2.734375 -7.78125 -2.40625 -7.625 -1.9375 -7.125 C -1.3125 -6.4375 -1 -5.625 -1 -4.640625 C -1 -3.34375 -1.625 -2.578125 -2.6875 -2.578125 C -3.78125 -2.578125 -4.34375 -3.296875 -4.59375 -5.09375 C -4.84375 -6.875 -4.921875 -7.21875 -5.1875 -7.78125 Z M -3.296875 -7.78125 "/>
</g>
<g id="glyph-2-8">
<path d="M -14.578125 -9.90625 L -14.578125 -8.234375 L -9.15625 -8.234375 C -10.21875 -7.546875 -10.78125 -6.421875 -10.78125 -5.015625 C -10.78125 -2.296875 -8.59375 -0.515625 -5.265625 -0.515625 C -1.71875 -0.515625 0.453125 -2.234375 0.453125 -5.078125 C 0.453125 -6.515625 -0.078125 -7.515625 -1.375 -8.421875 L 0 -8.421875 L 0 -9.90625 Z M -9.21875 -5.296875 C -9.21875 -7.09375 -7.640625 -8.234375 -5.125 -8.234375 C -2.703125 -8.234375 -1.09375 -7.078125 -1.09375 -5.3125 C -1.09375 -3.484375 -2.71875 -2.265625 -5.15625 -2.265625 C -7.59375 -2.265625 -9.21875 -3.484375 -9.21875 -5.296875 Z M -9.21875 -5.296875 "/>
</g>
<g id="glyph-2-9">
<path d="M 0 -5.703125 L -10.484375 -9.71875 L -10.484375 -7.84375 L -1.984375 -4.875 L -10.484375 -2.078125 L -10.484375 -0.203125 L 0 -3.875 Z M 0 -5.703125 "/>
</g>
<g id="glyph-2-10">
<path d="M -10.484375 -1.40625 L 0 -1.40625 L 0 -3.078125 L -5.78125 -3.078125 C -7.921875 -3.078125 -9.3125 -4.203125 -9.3125 -5.921875 C -9.3125 -7.234375 -8.515625 -8.078125 -7.265625 -8.078125 L 0 -8.078125 L 0 -9.734375 L -7.921875 -9.734375 C -9.65625 -9.734375 -10.78125 -8.4375 -10.78125 -6.421875 C -10.78125 -4.859375 -10.1875 -3.859375 -8.71875 -2.9375 L -10.484375 -2.9375 Z M -10.484375 -1.40625 "/>
</g>
<g id="glyph-2-11">
<path d="M -4.6875 -10.265625 C -6.28125 -10.265625 -7.234375 -10.140625 -8.015625 -9.84375 C -9.734375 -9.15625 -10.78125 -7.5625 -10.78125 -5.59375 C -10.78125 -2.6875 -8.5625 -0.796875 -5.09375 -0.796875 C -1.640625 -0.796875 0.453125 -2.59375 0.453125 -5.5625 C 0.453125 -7.953125 -0.90625 -9.625 -3.1875 -10.046875 L -3.1875 -8.359375 C -1.796875 -7.90625 -1.078125 -6.953125 -1.078125 -5.625 C -1.078125 -4.5625 -1.5625 -3.65625 -2.4375 -3.09375 C -3.046875 -2.703125 -3.640625 -2.5625 -4.6875 -2.546875 Z M -6.046875 -2.578125 C -7.984375 -2.71875 -9.234375 -3.90625 -9.234375 -5.578125 C -9.234375 -7.28125 -7.921875 -8.453125 -6.046875 -8.453125 Z M -6.046875 -2.578125 "/>
</g>
<g id="glyph-2-12">
<path d="M -14.578125 -4.71875 C -11.953125 -2.71875 -8.3125 -1.453125 -5.1875 -1.453125 C -2.015625 -1.453125 1.625 -2.71875 4.234375 -4.71875 L 4.234375 -5.8125 C 1.375 -4.0625 -1.984375 -3.078125 -5.1875 -3.078125 C -8.359375 -3.078125 -11.734375 -4.0625 -14.578125 -5.8125 Z M -14.578125 -4.71875 "/>
</g>
<g id="glyph-2-13">
<path d="M -7.5625 -8.765625 C -9.625 -8.734375 -10.78125 -7.375 -10.78125 -4.953125 C -10.78125 -2.515625 -9.515625 -0.9375 -7.578125 -0.9375 C -5.9375 -0.9375 -5.15625 -1.78125 -4.5625 -4.265625 L -4.1875 -5.8125 C -3.90625 -6.984375 -3.484375 -7.4375 -2.734375 -7.4375 C -1.734375 -7.4375 -1.078125 -6.453125 -1.078125 -5 C -1.078125 -4.09375 -1.34375 -3.34375 -1.78125 -2.921875 C -2.078125 -2.65625 -2.375 -2.546875 -3.125 -2.4375 L -3.125 -0.6875 C -0.703125 -0.765625 0.453125 -2.125 0.453125 -4.859375 C 0.453125 -7.5 -0.84375 -9.1875 -2.859375 -9.1875 C -4.421875 -9.1875 -5.28125 -8.296875 -5.78125 -6.21875 L -6.15625 -4.625 C -6.484375 -3.265625 -6.921875 -2.6875 -7.65625 -2.6875 C -8.640625 -2.6875 -9.234375 -3.546875 -9.234375 -4.90625 C -9.234375 -6.234375 -8.65625 -6.953125 -7.5625 -7 Z M -7.5625 -8.765625 "/>
</g>
<g id="glyph-2-14">
<path d="M -13.703125 -3.984375 C -13.703125 -2.09375 -12.15625 -0.578125 -10.28125 -0.578125 C -8.40625 -0.578125 -6.859375 -2.09375 -6.859375 -4 C -6.859375 -5.859375 -8.40625 -7.40625 -10.234375 -7.40625 C -12.1875 -7.40625 -13.703125 -5.90625 -13.703125 -3.984375 Z M -12.296875 -3.984375 C -12.296875 -5.125 -11.40625 -6.015625 -10.265625 -6.015625 C -9.15625 -6.015625 -8.265625 -5.09375 -8.265625 -4 C -8.265625 -2.875 -9.15625 -1.953125 -10.28125 -1.953125 C -11.40625 -1.953125 -12.296875 -2.859375 -12.296875 -3.984375 Z M -14.1875 -12.1875 L 0.40625 -4.28125 L 0.40625 -5.59375 L -14.1875 -13.5 Z M -6.4375 -13.765625 C -6.4375 -11.875 -4.921875 -10.359375 -3.046875 -10.359375 C -1.140625 -10.359375 0.375 -11.875 0.375 -13.78125 C 0.375 -15.640625 -1.140625 -17.1875 -3 -17.1875 C -4.921875 -17.1875 -6.4375 -15.6875 -6.4375 -13.765625 Z M -5.046875 -13.765625 C -5.046875 -14.90625 -4.140625 -15.796875 -3 -15.796875 C -1.921875 -15.796875 -1.015625 -14.875 -1.015625 -13.78125 C -1.015625 -12.640625 -1.921875 -11.734375 -3.046875 -11.734375 C -4.140625 -11.734375 -5.046875 -12.640625 -5.046875 -13.765625 Z M -5.046875 -13.765625 "/>
</g>
<g id="glyph-2-15">
<path d="M 4.359375 -1.078125 L 4.359375 -2.765625 L -1.09375 -2.765625 C -0.015625 -3.640625 0.453125 -4.625 0.453125 -5.984375 C 0.453125 -8.703125 -1.71875 -10.453125 -5.0625 -10.453125 C -8.578125 -10.453125 -10.78125 -8.734375 -10.78125 -5.953125 C -10.78125 -4.546875 -10.140625 -3.40625 -8.90625 -2.625 L -10.484375 -2.625 L -10.484375 -1.078125 Z M -9.21875 -5.6875 C -9.21875 -7.515625 -7.59375 -8.71875 -5.09375 -8.71875 C -2.71875 -8.71875 -1.09375 -7.5 -1.09375 -5.6875 C -1.09375 -3.90625 -2.703125 -2.765625 -5.15625 -2.765625 C -7.625 -2.765625 -9.21875 -3.90625 -9.21875 -5.6875 Z M -9.21875 -5.6875 "/>
</g>
<g id="glyph-2-16">
<path d="M -10.484375 -7.765625 L -2.3125 -4.859375 L -10.484375 -2.1875 L -10.484375 -0.40625 L 0.046875 -3.9375 L 1.703125 -3.296875 C 2.4375 -3.015625 2.71875 -2.65625 2.71875 -1.953125 C 2.71875 -1.6875 2.6875 -1.4375 2.59375 -1.078125 L 4.09375 -1.078125 C 4.28125 -1.421875 4.359375 -1.765625 4.359375 -2.203125 C 4.359375 -2.734375 4.1875 -3.3125 3.859375 -3.765625 C 3.484375 -4.28125 3.046875 -4.578125 2.203125 -4.90625 L -10.484375 -9.5625 Z M -10.484375 -7.765625 "/>
</g>
<g id="glyph-2-17">
<path d="M 4.234375 -1.859375 C 1.625 -3.859375 -2.015625 -5.125 -5.15625 -5.125 C -8.3125 -5.125 -11.953125 -3.859375 -14.578125 -1.859375 L -14.578125 -0.765625 C -11.71875 -2.515625 -8.359375 -3.5 -5.15625 -3.5 C -1.984375 -3.5 1.40625 -2.515625 4.234375 -0.765625 Z M 4.234375 -1.859375 "/>
</g>
<g id="glyph-2-18">
<path d="M -14.578125 -3.046875 L -14.578125 -1.359375 L 0 -1.359375 L 0 -3.046875 Z M -14.578125 -3.046875 "/>
</g>
<g id="glyph-2-19">
<path d="M -10.484375 -3 L -10.484375 -1.34375 L 0 -1.34375 L 0 -3 Z M -14.578125 -3 L -14.578125 -1.3125 L -12.484375 -1.3125 L -12.484375 -3 Z M -14.578125 -3 "/>
</g>
<g id="glyph-2-20">
<path d="M -7.484375 -7.8125 L -14.578125 -12.734375 L -14.578125 -10.515625 L -8.859375 -6.765625 L -14.578125 -3.015625 L -14.578125 -0.765625 L -7.484375 -5.59375 L 0 -0.4375 L 0 -2.703125 L -6.078125 -6.703125 L 0 -10.6875 L 0 -12.984375 Z M -7.484375 -7.8125 "/>
</g>
<g id="glyph-2-21">
<path d="M -6.640625 -3.65625 L -6.640625 -10.625 L -8.28125 -10.625 L -8.28125 -3.65625 L -12.9375 -3.65625 L -12.9375 -11.578125 L -14.578125 -11.578125 L -14.578125 -1.796875 L 0 -1.796875 L 0 -3.65625 Z M -6.640625 -3.65625 "/>
</g>
<g id="glyph-2-22">
<path d="M -7.703125 -14.1875 L -7.703125 -8.09375 L -6.0625 -8.09375 L -6.0625 -12.546875 L -5.65625 -12.546875 C -3.0625 -12.546875 -1.1875 -10.625 -1.1875 -7.953125 C -1.1875 -6.484375 -1.71875 -5.140625 -2.65625 -4.28125 C -3.703125 -3.3125 -5.4375 -2.734375 -7.234375 -2.734375 C -10.8125 -2.734375 -13.1875 -4.78125 -13.1875 -7.859375 C -13.1875 -10.078125 -12.046875 -11.6875 -10.15625 -12.078125 L -10.15625 -13.984375 C -13.125 -13.453125 -14.8125 -11.21875 -14.8125 -7.875 C -14.8125 -6.09375 -14.359375 -4.65625 -13.421875 -3.515625 C -12.015625 -1.8125 -9.765625 -0.875 -7.140625 -0.875 C -2.65625 -0.875 0.453125 -3.625 0.453125 -7.5625 C 0.453125 -9.546875 -0.28125 -11.09375 -1.859375 -12.546875 L 0.078125 -13 L 0.078125 -14.1875 Z M -7.703125 -14.1875 "/>
</g>
<g id="glyph-2-23">
<path d="M -2.078125 -3.8125 L -2.078125 -1.734375 L 0 -1.734375 L 0 -3.8125 Z M -2.078125 -3.8125 "/>
</g>
<g id="glyph-2-24">
<path d="M -6.65625 -4.421875 L -6.65625 -5.375 C -6.65625 -7.296875 -5.765625 -8.3125 -4.015625 -8.3125 C -2.203125 -8.3125 -1.09375 -7.21875 -1.09375 -5.40625 C -1.09375 -3.453125 -2.078125 -2.515625 -4.203125 -2.40625 L -4.203125 -0.640625 C -3.046875 -0.71875 -2.28125 -0.921875 -1.640625 -1.265625 C -0.234375 -2 0.453125 -3.375 0.453125 -5.3125 C 0.453125 -8.234375 -1.296875 -10.125 -4.046875 -10.125 C -5.875 -10.125 -6.875 -9.421875 -7.484375 -7.71875 C -8.015625 -9.046875 -9.015625 -9.703125 -10.484375 -9.703125 C -12.953125 -9.703125 -14.453125 -8.078125 -14.453125 -5.375 C -14.453125 -2.515625 -12.859375 -1 -9.796875 -0.9375 L -9.796875 -2.703125 C -10.6875 -2.71875 -11.1875 -2.796875 -11.625 -3.015625 C -12.4375 -3.421875 -12.921875 -4.296875 -12.921875 -5.40625 C -12.921875 -6.953125 -11.984375 -7.90625 -10.421875 -7.90625 C -9.40625 -7.90625 -8.78125 -7.546875 -8.4375 -6.765625 C -8.234375 -6.28125 -8.15625 -5.640625 -8.140625 -4.421875 Z M -6.65625 -4.421875 "/>
</g>
<g id="glyph-2-25">
<path d="M -6.953125 -9.421875 C -7.984375 -9.34375 -8.640625 -9.125 -9.21875 -8.71875 C -10.203125 -8 -10.78125 -6.734375 -10.78125 -5.28125 C -10.78125 -2.4375 -8.546875 -0.625 -5.0625 -0.625 C -1.6875 -0.625 0.453125 -2.421875 0.453125 -5.265625 C 0.453125 -7.765625 -1.046875 -9.34375 -3.59375 -9.546875 L -3.59375 -7.859375 C -1.921875 -7.578125 -1.078125 -6.71875 -1.078125 -5.296875 C -1.078125 -3.453125 -2.578125 -2.359375 -5.0625 -2.359375 C -7.6875 -2.359375 -9.234375 -3.4375 -9.234375 -5.265625 C -9.234375 -6.65625 -8.421875 -7.546875 -6.953125 -7.734375 Z M -6.953125 -9.421875 "/>
</g>
<g id="glyph-2-26">
<path d="M -14.8125 -7.78125 C -14.8125 -3.59375 -11.734375 -0.765625 -7.1875 -0.765625 C -2.59375 -0.765625 0.453125 -3.578125 0.453125 -7.796875 C 0.453125 -9.578125 -0.078125 -11.140625 -1.078125 -12.3125 C -2.421875 -13.90625 -4.6875 -14.84375 -7.0625 -14.84375 C -11.765625 -14.84375 -14.8125 -12.0625 -14.8125 -7.78125 Z M -13.1875 -7.78125 C -13.1875 -10.9375 -10.796875 -12.984375 -7.09375 -12.984375 C -3.578125 -12.984375 -1.1875 -10.875 -1.1875 -7.796875 C -1.1875 -4.6875 -3.578125 -2.625 -7.1875 -2.625 C -10.78125 -2.625 -13.1875 -4.6875 -13.1875 -7.78125 Z M -13.1875 -7.78125 "/>
</g>
<g id="glyph-3-0">
<path d="M 4.6875 -4.484375 L 7.640625 -8.75 L 6.3125 -8.75 L 4.0625 -5.3125 L 1.8125 -8.75 L 0.453125 -8.75 L 3.359375 -4.484375 L 0.265625 0 L 1.625 0 L 4.015625 -3.640625 L 6.40625 0 L 7.78125 0 Z M 4.6875 -4.484375 "/>
</g>
<g id="glyph-3-1">
<path d="M 2.203125 -3.984375 L 6.375 -3.984375 L 6.375 -4.96875 L 2.203125 -4.96875 L 2.203125 -7.765625 L 6.953125 -7.765625 L 6.953125 -8.75 L 1.078125 -8.75 L 1.078125 0 L 2.203125 0 Z M 2.203125 -3.984375 "/>
</g>
<g id="glyph-3-2">
<path d="M 8.515625 -4.625 L 4.859375 -4.625 L 4.859375 -3.640625 L 7.53125 -3.640625 L 7.53125 -3.390625 C 7.53125 -1.84375 6.375 -0.703125 4.78125 -0.703125 C 3.890625 -0.703125 3.078125 -1.03125 2.5625 -1.59375 C 1.984375 -2.21875 1.640625 -3.265625 1.640625 -4.34375 C 1.640625 -6.484375 2.875 -7.90625 4.71875 -7.90625 C 6.046875 -7.90625 7.015625 -7.21875 7.25 -6.09375 L 8.390625 -6.09375 C 8.078125 -7.875 6.734375 -8.890625 4.734375 -8.890625 C 3.65625 -8.890625 2.796875 -8.609375 2.109375 -8.046875 C 1.09375 -7.21875 0.53125 -5.859375 0.53125 -4.28125 C 0.53125 -1.59375 2.171875 0.28125 4.53125 0.28125 C 5.71875 0.28125 6.65625 -0.171875 7.53125 -1.109375 L 7.796875 0.046875 L 8.515625 0.046875 Z M 8.515625 -4.625 "/>
</g>
<g id="glyph-3-3">
<path d="M 2.296875 -1.25 L 1.046875 -1.25 L 1.046875 0 L 2.296875 0 Z M 2.296875 -1.25 "/>
</g>
<g id="glyph-3-4">
<path d="M 3.109375 -6.1875 L 3.109375 0 L 4.15625 0 L 4.15625 -8.671875 L 3.46875 -8.671875 C 3.09375 -7.34375 2.859375 -7.15625 1.21875 -6.953125 L 1.21875 -6.1875 Z M 3.109375 -6.1875 "/>
</g>
<g id="glyph-3-5">
<path d="M 6.078125 -1.046875 L 1.59375 -1.046875 C 1.703125 -1.765625 2.09375 -2.21875 3.125 -2.859375 L 4.328125 -3.53125 C 5.515625 -4.1875 6.125 -5.078125 6.125 -6.140625 C 6.125 -6.859375 5.84375 -7.53125 5.34375 -8 C 4.84375 -8.453125 4.21875 -8.671875 3.40625 -8.671875 C 2.328125 -8.671875 1.53125 -8.296875 1.0625 -7.546875 C 0.75 -7.09375 0.625 -6.546875 0.59375 -5.671875 L 1.65625 -5.671875 C 1.6875 -6.265625 1.765625 -6.609375 1.90625 -6.90625 C 2.1875 -7.421875 2.734375 -7.75 3.375 -7.75 C 4.328125 -7.75 5.046875 -7.0625 5.046875 -6.125 C 5.046875 -5.421875 4.65625 -4.828125 3.90625 -4.390625 L 2.796875 -3.75 C 1.015625 -2.71875 0.5 -1.90625 0.40625 -0.015625 L 6.078125 -0.015625 Z M 6.078125 -1.046875 "/>
</g>
<g id="glyph-3-6">
<path d="M 2.828125 -8.75 C 1.625 -7.171875 0.875 -4.984375 0.875 -3.109375 C 0.875 -1.21875 1.625 0.96875 2.828125 2.546875 L 3.484375 2.546875 C 2.4375 0.828125 1.84375 -1.1875 1.84375 -3.109375 C 1.84375 -5.015625 2.4375 -7.046875 3.484375 -8.75 Z M 2.828125 -8.75 "/>
</g>
<g id="glyph-3-7">
<path d="M 0.84375 -6.28125 L 0.84375 0 L 1.84375 0 L 1.84375 -3.46875 C 1.84375 -4.75 2.515625 -5.59375 3.546875 -5.59375 C 4.34375 -5.59375 4.84375 -5.109375 4.84375 -4.359375 L 4.84375 0 L 5.84375 0 L 5.84375 -4.75 C 5.84375 -5.796875 5.0625 -6.46875 3.859375 -6.46875 C 2.921875 -6.46875 2.3125 -6.109375 1.765625 -5.234375 L 1.765625 -6.28125 Z M 0.84375 -6.28125 "/>
</g>
<g id="glyph-3-8">
<path d="M 6.40625 -4.234375 L 0.59375 -4.234375 L 0.59375 -3.390625 L 6.40625 -3.390625 Z M 6.40625 -2.171875 L 0.59375 -2.171875 L 0.59375 -1.328125 L 6.40625 -1.328125 Z M 6.40625 -2.171875 "/>
</g>
<g id="glyph-3-9">
<path d="M 5.96875 -6.421875 C 5.765625 -7.84375 4.859375 -8.671875 3.5625 -8.671875 C 2.625 -8.671875 1.78125 -8.21875 1.28125 -7.4375 C 0.75 -6.59375 0.515625 -5.53125 0.515625 -3.953125 C 0.515625 -2.5 0.71875 -1.578125 1.234375 -0.796875 C 1.6875 -0.09375 2.4375 0.28125 3.375 0.28125 C 4.984375 0.28125 6.15625 -0.9375 6.15625 -2.625 C 6.15625 -4.21875 5.078125 -5.359375 3.546875 -5.359375 C 2.71875 -5.359375 2.046875 -5.046875 1.59375 -4.40625 C 1.609375 -6.546875 2.28125 -7.734375 3.484375 -7.734375 C 4.234375 -7.734375 4.75 -7.265625 4.921875 -6.421875 Z M 3.421875 -4.421875 C 4.4375 -4.421875 5.078125 -3.703125 5.078125 -2.546875 C 5.078125 -1.453125 4.359375 -0.65625 3.390625 -0.65625 C 2.40625 -0.65625 1.65625 -1.484375 1.65625 -2.59375 C 1.65625 -3.671875 2.375 -4.421875 3.421875 -4.421875 Z M 3.421875 -4.421875 "/>
</g>
<g id="glyph-3-10">
<path d="M 6.234375 -8.515625 L 0.546875 -8.515625 L 0.546875 -7.46875 L 5.140625 -7.46875 C 3.125 -4.578125 2.296875 -2.796875 1.65625 0 L 2.78125 0 C 3.25 -2.71875 4.3125 -5.0625 6.234375 -7.625 Z M 6.234375 -8.515625 "/>
</g>
<g id="glyph-3-11">
<path d="M 1.109375 2.546875 C 2.3125 0.96875 3.078125 -1.21875 3.078125 -3.09375 C 3.078125 -4.984375 2.3125 -7.171875 1.109375 -8.75 L 0.453125 -8.75 C 1.515625 -7.03125 2.09375 -5.015625 2.09375 -3.09375 C 2.09375 -1.1875 1.515625 0.84375 0.453125 2.546875 Z M 1.109375 2.546875 "/>
</g>
<g id="glyph-3-12">
<path d="M 2.5625 -1.25 L 1.3125 -1.25 L 1.3125 0 L 2.5625 0 Z M 2.5625 -6.28125 L 1.3125 -6.28125 L 1.3125 -5.046875 L 2.5625 -5.046875 Z M 2.5625 -6.28125 "/>
</g>
<g id="glyph-3-13">
</g>
<g id="glyph-3-14">
<path d="M 3.296875 -8.671875 C 2.515625 -8.671875 1.78125 -8.3125 1.34375 -7.734375 C 0.796875 -6.953125 0.515625 -5.8125 0.515625 -4.203125 C 0.515625 -1.265625 1.46875 0.28125 3.296875 0.28125 C 5.09375 0.28125 6.078125 -1.265625 6.078125 -4.125 C 6.078125 -5.8125 5.8125 -6.9375 5.25 -7.734375 C 4.8125 -8.328125 4.109375 -8.671875 3.296875 -8.671875 Z M 3.296875 -7.734375 C 4.4375 -7.734375 5 -6.578125 5 -4.21875 C 5 -1.75 4.453125 -0.59375 3.28125 -0.59375 C 2.15625 -0.59375 1.59375 -1.796875 1.59375 -4.1875 C 1.59375 -6.578125 2.15625 -7.734375 3.296875 -7.734375 Z M 3.296875 -7.734375 "/>
</g>
<g id="glyph-3-15">
<path d="M 3.3125 -8.75 L 2.765625 -8.75 C 1.9375 -8.734375 1.421875 -8.140625 1.453125 -7.15625 L 1.453125 -5.171875 C 1.46875 -4.109375 1.21875 -3.640625 0.515625 -3.515625 L 0.515625 -2.6875 C 1.21875 -2.5625 1.46875 -2.09375 1.453125 -1.03125 L 1.453125 0.953125 C 1.421875 1.9375 1.9375 2.53125 2.765625 2.546875 L 3.3125 2.546875 L 3.3125 1.765625 L 3.125 1.765625 C 2.53125 1.75 2.375 1.578125 2.375 0.953125 L 2.375 -1.21875 C 2.359375 -2.203125 2.03125 -2.859375 1.390625 -3.109375 C 2.09375 -3.359375 2.375 -3.90625 2.375 -4.984375 L 2.375 -7.15625 C 2.375 -7.78125 2.53125 -7.953125 3.125 -7.96875 L 3.3125 -7.96875 Z M 3.3125 -8.75 "/>
</g>
<g id="glyph-3-16">
<path d="M 7.75 -8.75 L 6.703125 -8.75 L 6.703125 -1.59375 L 2.125 -8.75 L 0.90625 -8.75 L 0.90625 0 L 1.96875 0 L 1.96875 -7.09375 L 6.484375 0 L 7.75 0 Z M 7.75 -8.75 "/>
</g>
<g id="glyph-3-17">
<path d="M 5.6875 -2.625 L 6.59375 0 L 7.84375 0 L 4.765625 -8.75 L 3.328125 -8.75 L 0.203125 0 L 1.390625 0 L 2.3125 -2.625 Z M 5.375 -3.5625 L 2.59375 -3.5625 L 4.03125 -7.546875 Z M 5.375 -3.5625 "/>
</g>
<g id="glyph-3-18">
<path d="M 1.046875 -1.25 L 1.046875 0 L 1.765625 0 L 1.765625 0.21875 C 1.765625 1.046875 1.609375 1.28125 1.046875 1.3125 L 1.046875 1.765625 C 1.84375 1.78125 2.296875 1.21875 2.296875 0.1875 L 2.296875 -1.25 Z M 1.046875 -1.25 "/>
</g>
<g id="glyph-3-19">
<path d="M 0.34375 2.546875 L 0.90625 2.546875 C 1.75 2.53125 2.25 1.9375 2.234375 0.953125 L 2.234375 -1.03125 C 2.21875 -2.09375 2.46875 -2.5625 3.140625 -2.6875 L 3.140625 -3.515625 C 2.46875 -3.640625 2.21875 -4.109375 2.234375 -5.171875 L 2.234375 -7.15625 C 2.25 -8.140625 1.75 -8.734375 0.90625 -8.75 L 0.34375 -8.75 L 0.34375 -7.96875 L 0.546875 -7.96875 C 1.140625 -7.953125 1.3125 -7.78125 1.3125 -7.15625 L 1.3125 -4.984375 C 1.3125 -4 1.65625 -3.34375 2.296875 -3.09375 C 1.65625 -2.859375 1.3125 -2.203125 1.3125 -1.21875 L 1.3125 0.953125 C 1.3125 1.578125 1.15625 1.75 0.546875 1.765625 L 0.34375 1.765625 Z M 0.34375 2.546875 "/>
</g>
</g>
<clipPath id="clip-0">
<path clip-rule="nonzero" d="M 84.828125 5.480469 L 354.523438 5.480469 L 354.523438 312.757812 L 84.828125 312.757812 Z M 84.828125 5.480469 "/>
</clipPath>
<clipPath id="clip-1">
<path clip-rule="nonzero" d="M 84.828125 263 L 354.523438 263 L 354.523438 265 L 84.828125 265 Z M 84.828125 263 "/>
</clipPath>
<clipPath id="clip-2">
<path clip-rule="nonzero" d="M 84.828125 193 L 354.523438 193 L 354.523438 195 L 84.828125 195 Z M 84.828125 193 "/>
</clipPath>
<clipPath id="clip-3">
<path clip-rule="nonzero" d="M 84.828125 123 L 354.523438 123 L 354.523438 125 L 84.828125 125 Z M 84.828125 123 "/>
</clipPath>
<clipPath id="clip-4">
<path clip-rule="nonzero" d="M 84.828125 54 L 354.523438 54 L 354.523438 55 L 84.828125 55 Z M 84.828125 54 "/>
</clipPath>
<clipPath id="clip-5">
<path clip-rule="nonzero" d="M 103 5.480469 L 105 5.480469 L 105 312.757812 L 103 312.757812 Z M 103 5.480469 "/>
</clipPath>
<clipPath id="clip-6">
<path clip-rule="nonzero" d="M 215 5.480469 L 217 5.480469 L 217 312.757812 L 215 312.757812 Z M 215 5.480469 "/>
</clipPath>
<clipPath id="clip-7">
<path clip-rule="nonzero" d="M 327 5.480469 L 329 5.480469 L 329 312.757812 L 327 312.757812 Z M 327 5.480469 "/>
</clipPath>
<clipPath id="clip-8">
<path clip-rule="nonzero" d="M 84.828125 298 L 354.523438 298 L 354.523438 300 L 84.828125 300 Z M 84.828125 298 "/>
</clipPath>
<clipPath id="clip-9">
<path clip-rule="nonzero" d="M 84.828125 228 L 354.523438 228 L 354.523438 230 L 84.828125 230 Z M 84.828125 228 "/>
</clipPath>
<clipPath id="clip-10">
<path clip-rule="nonzero" d="M 84.828125 158 L 354.523438 158 L 354.523438 160 L 84.828125 160 Z M 84.828125 158 "/>
</clipPath>
<clipPath id="clip-11">
<path clip-rule="nonzero" d="M 84.828125 88 L 354.523438 88 L 354.523438 90 L 84.828125 90 Z M 84.828125 88 "/>
</clipPath>
<clipPath id="clip-12">
<path clip-rule="nonzero" d="M 84.828125 18 L 354.523438 18 L 354.523438 20 L 84.828125 20 Z M 84.828125 18 "/>
</clipPath>
<clipPath id="clip-13">
<path clip-rule="nonzero" d="M 159 5.480469 L 161 5.480469 L 161 312.757812 L 159 312.757812 Z M 159 5.480469 "/>
</clipPath>
<clipPath id="clip-14">
<path clip-rule="nonzero" d="M 271 5.480469 L 273 5.480469 L 273 312.757812 L 271 312.757812 Z M 271 5.480469 "/>
</clipPath>
<clipPath id="clip-15">
<path clip-rule="nonzero" d="M 84.828125 5.480469 L 354.523438 5.480469 L 354.523438 312.757812 L 84.828125 312.757812 Z M 84.828125 5.480469 "/>
</clipPath>
</defs>
<rect x="-36" y="-36" width="432" height="432" fill="rgb(100%, 100%, 100%)" fill-opacity="1"/>
<rect x="-36" y="-36" width="432" height="432" fill="rgb(100%, 100%, 100%)" fill-opacity="1"/>
<path fill="none" stroke-width="1.066978" stroke-linecap="round" stroke-linejoin="round" stroke="rgb(100%, 100%, 100%)" stroke-opacity="1" stroke-miterlimit="10" d="M 0 360 L 360 360 L 360 0 L 0 0 Z M 0 360 "/>
<g clip-path="url(#clip-0)">
<path fill-rule="nonzero" fill="rgb(100%, 100%, 100%)" fill-opacity="1" d="M 84.828125 312.757812 L 354.523438 312.757812 L 354.523438 5.480469 L 84.828125 5.480469 Z M 84.828125 312.757812 "/>
</g>
<g clip-path="url(#clip-1)">
<path fill="none" stroke-width="0.533489" stroke-linecap="butt" stroke-linejoin="round" stroke="rgb(92.156863%, 92.156863%, 92.156863%)" stroke-opacity="1" stroke-miterlimit="10" d="M 84.828125 263.871094 L 354.519531 263.871094 "/>
</g>
<g clip-path="url(#clip-2)">
<path fill="none" stroke-width="0.533489" stroke-linecap="butt" stroke-linejoin="round" stroke="rgb(92.156863%, 92.156863%, 92.156863%)" stroke-opacity="1" stroke-miterlimit="10" d="M 84.828125 194.035156 L 354.519531 194.035156 "/>
</g>
<g clip-path="url(#clip-3)">
<path fill="none" stroke-width="0.533489" stroke-linecap="butt" stroke-linejoin="round" stroke="rgb(92.156863%, 92.156863%, 92.156863%)" stroke-opacity="1" stroke-miterlimit="10" d="M 84.828125 124.199219 L 354.519531 124.199219 "/>
</g>
<g clip-path="url(#clip-4)">
<path fill="none" stroke-width="0.533489" stroke-linecap="butt" stroke-linejoin="round" stroke="rgb(92.156863%, 92.156863%, 92.156863%)" stroke-opacity="1" stroke-miterlimit="10" d="M 84.828125 54.363281 L 354.519531 54.363281 "/>
</g>
<g clip-path="url(#clip-5)">
<path fill="none" stroke-width="0.533489" stroke-linecap="butt" stroke-linejoin="round" stroke="rgb(92.156863%, 92.156863%, 92.156863%)" stroke-opacity="1" stroke-miterlimit="10" d="M 103.863281 312.757812 L 103.863281 5.480469 "/>
</g>
<g clip-path="url(#clip-6)">
<path fill="none" stroke-width="0.533489" stroke-linecap="butt" stroke-linejoin="round" stroke="rgb(92.156863%, 92.156863%, 92.156863%)" stroke-opacity="1" stroke-miterlimit="10" d="M 215.976562 312.757812 L 215.976562 5.480469 "/>
</g>
<g clip-path="url(#clip-7)">
<path fill="none" stroke-width="0.533489" stroke-linecap="butt" stroke-linejoin="round" stroke="rgb(92.156863%, 92.156863%, 92.156863%)" stroke-opacity="1" stroke-miterlimit="10" d="M 328.09375 312.757812 L 328.09375 5.480469 "/>
</g>
<g clip-path="url(#clip-8)">
<path fill="none" stroke-width="1.066978" stroke-linecap="butt" stroke-linejoin="round" stroke="rgb(92.156863%, 92.156863%, 92.156863%)" stroke-opacity="1" stroke-miterlimit="10" d="M 84.828125 298.789062 L 354.519531 298.789062 "/>
</g>
<g clip-path="url(#clip-9)">
<path fill="none" stroke-width="1.066978" stroke-linecap="butt" stroke-linejoin="round" stroke="rgb(92.156863%, 92.156863%, 92.156863%)" stroke-opacity="1" stroke-miterlimit="10" d="M 84.828125 228.953125 L 354.519531 228.953125 "/>
</g>
<g clip-path="url(#clip-10)">
<path fill="none" stroke-width="1.066978" stroke-linecap="butt" stroke-linejoin="round" stroke="rgb(92.156863%, 92.156863%, 92.156863%)" stroke-opacity="1" stroke-miterlimit="10" d="M 84.828125 159.117188 L 354.519531 159.117188 "/>
</g>
<g clip-path="url(#clip-11)">
<path fill="none" stroke-width="1.066978" stroke-linecap="butt" stroke-linejoin="round" stroke="rgb(92.156863%, 92.156863%, 92.156863%)" stroke-opacity="1" stroke-miterlimit="10" d="M 84.828125 89.28125 L 354.519531 89.28125 "/>
</g>
<g clip-path="url(#clip-12)">
<path fill="none" stroke-width="1.066978" stroke-linecap="butt" stroke-linejoin="round" stroke="rgb(92.156863%, 92.156863%, 92.156863%)" stroke-opacity="1" stroke-miterlimit="10" d="M 84.828125 19.445312 L 354.519531 19.445312 "/>
</g>
<g clip-path="url(#clip-13)">
<path fill="none" stroke-width="1.066978" stroke-linecap="butt" stroke-linejoin="round" stroke="rgb(92.156863%, 92.156863%, 92.156863%)" stroke-opacity="1" stroke-miterlimit="10" d="M 159.917969 312.757812 L 159.917969 5.480469 "/>
</g>
<g clip-path="url(#clip-14)">
<path fill="none" stroke-width="1.066978" stroke-linecap="butt" stroke-linejoin="round" stroke="rgb(92.156863%, 92.156863%, 92.156863%)" stroke-opacity="1" stroke-miterlimit="10" d="M 272.035156 312.757812 L 272.035156 5.480469 "/>
</g>
<path fill-rule="nonzero" fill="rgb(97.254902%, 46.27451%, 42.745098%)" fill-opacity="0.698039" stroke-width="0.708661" stroke-linecap="round" stroke-linejoin="round" stroke="rgb(0%, 0%, 0%)" stroke-opacity="0.698039" stroke-miterlimit="10" d="M 97.902344 19.445312 C 97.902344 20.535156 96.269531 20.535156 96.269531 19.445312 C 96.269531 18.359375 97.902344 18.359375 97.902344 19.445312 "/>
<path fill-rule="nonzero" fill="rgb(97.254902%, 46.27451%, 42.745098%)" fill-opacity="0.698039" stroke-width="0.708661" stroke-linecap="round" stroke-linejoin="round" stroke="rgb(0%, 0%, 0%)" stroke-opacity="0.698039" stroke-miterlimit="10" d="M 99.132812 19.445312 C 99.132812 20.535156 97.5 20.535156 97.5 19.445312 C 97.5 18.359375 99.132812 18.359375 99.132812 19.445312 "/>
<path fill-rule="nonzero" fill="rgb(97.254902%, 46.27451%, 42.745098%)" fill-opacity="0.698039" stroke-width="0.708661" stroke-linecap="round" stroke-linejoin="round" stroke="rgb(0%, 0%, 0%)" stroke-opacity="0.698039" stroke-miterlimit="10" d="M 100.28125 187.054688 C 100.28125 188.027344 98.816406 188.027344 98.816406 187.054688 C 98.816406 186.078125 100.28125 186.078125 100.28125 187.054688 "/>
<path fill-rule="nonzero" fill="rgb(97.254902%, 46.27451%, 42.745098%)" fill-opacity="0.698039" stroke-width="0.708661" stroke-linecap="round" stroke-linejoin="round" stroke="rgb(0%, 0%, 0%)" stroke-opacity="0.698039" stroke-miterlimit="10" d="M 101.730469 66.003906 C 101.730469 67.273438 99.832031 67.273438 99.832031 66.003906 C 99.832031 64.734375 101.730469 64.734375 101.730469 66.003906 "/>
<path fill-rule="nonzero" fill="rgb(97.254902%, 46.27451%, 42.745098%)" fill-opacity="0.698039" stroke-width="0.708661" stroke-linecap="round" stroke-linejoin="round" stroke="rgb(0%, 0%, 0%)" stroke-opacity="0.698039" stroke-miterlimit="10" d="M 102.632812 159.117188 C 102.632812 159.945312 101.394531 159.945312 101.394531 159.117188 C 101.394531 158.289062 102.632812 158.289062 102.632812 159.117188 "/>
<path fill-rule="nonzero" fill="rgb(97.254902%, 46.27451%, 42.745098%)" fill-opacity="0.698039" stroke-width="0.708661" stroke-linecap="round" stroke-linejoin="round" stroke="rgb(0%, 0%, 0%)" stroke-opacity="0.698039" stroke-miterlimit="10" d="M 103.867188 19.445312 C 103.867188 20.273438 102.625 20.273438 102.625 19.445312 C 102.625 18.617188 103.867188 18.617188 103.867188 19.445312 "/>
<path fill-rule="nonzero" fill="rgb(97.254902%, 46.27451%, 42.745098%)" fill-opacity="0.698039" stroke-width="0.708661" stroke-linecap="round" stroke-linejoin="round" stroke="rgb(0%, 0%, 0%)" stroke-opacity="0.698039" stroke-miterlimit="10" d="M 105.585938 50.484375 C 105.585938 51.964844 103.367188 51.964844 103.367188 50.484375 C 103.367188 49.007812 105.585938 49.007812 105.585938 50.484375 "/>
<path fill-rule="nonzero" fill="rgb(97.254902%, 46.27451%, 42.745098%)" fill-opacity="0.698039" stroke-width="0.708661" stroke-linecap="round" stroke-linejoin="round" stroke="rgb(0%, 0%, 0%)" stroke-opacity="0.698039" stroke-miterlimit="10" d="M 107.132812 35.878906 C 107.132812 37.773438 104.289062 37.773438 104.289062 35.878906 C 104.289062 33.984375 107.132812 33.984375 107.132812 35.878906 "/>
<path fill-rule="nonzero" fill="rgb(97.254902%, 46.27451%, 42.745098%)" fill-opacity="0.698039" stroke-width="0.708661" stroke-linecap="round" stroke-linejoin="round" stroke="rgb(0%, 0%, 0%)" stroke-opacity="0.698039" stroke-miterlimit="10" d="M 108.097656 47.382812 C 108.097656 48.921875 105.789062 48.921875 105.789062 47.382812 C 105.789062 45.839844 108.097656 45.839844 108.097656 47.382812 "/>
<path fill-rule="nonzero" fill="rgb(97.254902%, 46.27451%, 42.745098%)" fill-opacity="0.698039" stroke-width="0.708661" stroke-linecap="round" stroke-linejoin="round" stroke="rgb(0%, 0%, 0%)" stroke-opacity="0.698039" stroke-miterlimit="10" d="M 109.328125 19.445312 C 109.328125 20.984375 107.019531 20.984375 107.019531 19.445312 C 107.019531 17.90625 109.328125 17.90625 109.328125 19.445312 "/>
<path fill-rule="nonzero" fill="rgb(97.254902%, 46.27451%, 42.745098%)" fill-opacity="0.698039" stroke-width="0.708661" stroke-linecap="round" stroke-linejoin="round" stroke="rgb(0%, 0%, 0%)" stroke-opacity="0.698039" stroke-miterlimit="10" d="M 110.292969 19.445312 C 110.292969 20.628906 108.519531 20.628906 108.519531 19.445312 C 108.519531 18.261719 110.292969 18.261719 110.292969 19.445312 "/>
<path fill-rule="nonzero" fill="rgb(97.254902%, 46.27451%, 42.745098%)" fill-opacity="0.698039" stroke-width="0.708661" stroke-linecap="round" stroke-linejoin="round" stroke="rgb(0%, 0%, 0%)" stroke-opacity="0.698039" stroke-miterlimit="10" d="M 111.527344 19.445312 C 111.527344 20.628906 109.75 20.628906 109.75 19.445312 C 109.75 18.261719 111.527344 18.261719 111.527344 19.445312 "/>
<path fill-rule="nonzero" fill="rgb(97.254902%, 46.27451%, 42.745098%)" fill-opacity="0.698039" stroke-width="0.708661" stroke-linecap="round" stroke-linejoin="round" stroke="rgb(0%, 0%, 0%)" stroke-opacity="0.698039" stroke-miterlimit="10" d="M 112.371094 298.789062 C 112.371094 299.457031 111.371094 299.457031 111.371094 298.789062 C 111.371094 298.125 112.371094 298.125 112.371094 298.789062 "/>
<path fill-rule="nonzero" fill="rgb(97.254902%, 46.27451%, 42.745098%)" fill-opacity="0.698039" stroke-width="0.708661" stroke-linecap="round" stroke-linejoin="round" stroke="rgb(0%, 0%, 0%)" stroke-opacity="0.698039" stroke-miterlimit="10" d="M 114.300781 44.839844 C 114.300781 46.4375 111.902344 46.4375 111.902344 44.839844 C 111.902344 43.246094 114.300781 43.246094 114.300781 44.839844 "/>
<path fill-rule="nonzero" fill="rgb(97.254902%, 46.27451%, 42.745098%)" fill-opacity="0.698039" stroke-width="0.708661" stroke-linecap="round" stroke-linejoin="round" stroke="rgb(0%, 0%, 0%)" stroke-opacity="0.698039" stroke-miterlimit="10" d="M 115.222656 19.445312 C 115.222656 20.628906 113.445312 20.628906 113.445312 19.445312 C 113.445312 18.261719 115.222656 18.261719 115.222656 19.445312 "/>
<path fill-rule="nonzero" fill="rgb(97.254902%, 46.27451%, 42.745098%)" fill-opacity="0.698039" stroke-width="0.708661" stroke-linecap="round" stroke-linejoin="round" stroke="rgb(0%, 0%, 0%)" stroke-opacity="0.698039" stroke-miterlimit="10" d="M 116.765625 44.839844 C 116.765625 46.4375 114.367188 46.4375 114.367188 44.839844 C 114.367188 43.246094 116.765625 43.246094 116.765625 44.839844 "/>
<path fill-rule="nonzero" fill="rgb(97.254902%, 46.27451%, 42.745098%)" fill-opacity="0.698039" stroke-width="0.708661" stroke-linecap="round" stroke-linejoin="round" stroke="rgb(0%, 0%, 0%)" stroke-opacity="0.698039" stroke-miterlimit="10" d="M 117.804688 19.445312 C 117.804688 20.789062 115.789062 20.789062 115.789062 19.445312 C 115.789062 18.101562 117.804688 18.101562 117.804688 19.445312 "/>
<path fill-rule="nonzero" fill="rgb(97.254902%, 46.27451%, 42.745098%)" fill-opacity="0.698039" stroke-width="0.708661" stroke-linecap="round" stroke-linejoin="round" stroke="rgb(0%, 0%, 0%)" stroke-opacity="0.698039" stroke-miterlimit="10" d="M 118.917969 19.445312 C 118.917969 20.628906 117.140625 20.628906 117.140625 19.445312 C 117.140625 18.261719 118.917969 18.261719 118.917969 19.445312 "/>
<path fill-rule="nonzero" fill="rgb(97.254902%, 46.27451%, 42.745098%)" fill-opacity="0.698039" stroke-width="0.708661" stroke-linecap="round" stroke-linejoin="round" stroke="rgb(0%, 0%, 0%)" stroke-opacity="0.698039" stroke-miterlimit="10" d="M 119.992188 19.445312 C 119.992188 20.421875 118.53125 20.421875 118.53125 19.445312 C 118.53125 18.472656 119.992188 18.472656 119.992188 19.445312 "/>
<path fill-rule="nonzero" fill="rgb(97.254902%, 46.27451%, 42.745098%)" fill-opacity="0.698039" stroke-width="0.708661" stroke-linecap="round" stroke-linejoin="round" stroke="rgb(0%, 0%, 0%)" stroke-opacity="0.698039" stroke-miterlimit="10" d="M 121.3125 19.445312 C 121.3125 20.535156 119.679688 20.535156 119.679688 19.445312 C 119.679688 18.359375 121.3125 18.359375 121.3125 19.445312 "/>
<path fill-rule="nonzero" fill="rgb(97.254902%, 46.27451%, 42.745098%)" fill-opacity="0.698039" stroke-width="0.708661" stroke-linecap="round" stroke-linejoin="round" stroke="rgb(0%, 0%, 0%)" stroke-opacity="0.698039" stroke-miterlimit="10" d="M 122.613281 75.316406 C 122.613281 76.5 120.839844 76.5 120.839844 75.316406 C 120.839844 74.132812 122.613281 74.132812 122.613281 75.316406 "/>
<path fill-rule="nonzero" fill="rgb(97.254902%, 46.27451%, 42.745098%)" fill-opacity="0.698039" stroke-width="0.708661" stroke-linecap="round" stroke-linejoin="round" stroke="rgb(0%, 0%, 0%)" stroke-opacity="0.698039" stroke-miterlimit="10" d="M 123.773438 19.445312 C 123.773438 20.535156 122.140625 20.535156 122.140625 19.445312 C 122.140625 18.359375 123.773438 18.359375 123.773438 19.445312 "/>
<path fill-rule="nonzero" fill="rgb(97.254902%, 46.27451%, 42.745098%)" fill-opacity="0.698039" stroke-width="0.708661" stroke-linecap="round" stroke-linejoin="round" stroke="rgb(0%, 0%, 0%)" stroke-opacity="0.698039" stroke-miterlimit="10" d="M 125.25 54.363281 C 125.25 55.777344 123.128906 55.777344 123.128906 54.363281 C 123.128906 52.949219 125.25 52.949219 125.25 54.363281 "/>
<path fill-rule="nonzero" fill="rgb(97.254902%, 46.27451%, 42.745098%)" fill-opacity="0.698039" stroke-width="0.708661" stroke-linecap="round" stroke-linejoin="round" stroke="rgb(0%, 0%, 0%)" stroke-opacity="0.698039" stroke-miterlimit="10" d="M 126.308594 19.445312 C 126.308594 20.628906 124.535156 20.628906 124.535156 19.445312 C 124.535156 18.261719 126.308594 18.261719 126.308594 19.445312 "/>
<path fill-rule="nonzero" fill="rgb(97.254902%, 46.27451%, 42.745098%)" fill-opacity="0.698039" stroke-width="0.708661" stroke-linecap="round" stroke-linejoin="round" stroke="rgb(0%, 0%, 0%)" stroke-opacity="0.698039" stroke-miterlimit="10" d="M 127.542969 19.445312 C 127.542969 20.628906 125.765625 20.628906 125.765625 19.445312 C 125.765625 18.261719 127.542969 18.261719 127.542969 19.445312 "/>
<path fill-rule="nonzero" fill="rgb(97.254902%, 46.27451%, 42.745098%)" fill-opacity="0.698039" stroke-width="0.708661" stroke-linecap="round" stroke-linejoin="round" stroke="rgb(0%, 0%, 0%)" stroke-opacity="0.698039" stroke-miterlimit="10" d="M 128.703125 19.445312 C 128.703125 20.535156 127.070312 20.535156 127.070312 19.445312 C 127.070312 18.359375 128.703125 18.359375 128.703125 19.445312 "/>
<path fill-rule="nonzero" fill="rgb(97.254902%, 46.27451%, 42.745098%)" fill-opacity="0.698039" stroke-width="0.708661" stroke-linecap="round" stroke-linejoin="round" stroke="rgb(0%, 0%, 0%)" stroke-opacity="0.698039" stroke-miterlimit="10" d="M 129.738281 19.445312 C 129.738281 20.273438 128.496094 20.273438 128.496094 19.445312 C 128.496094 18.617188 129.738281 18.617188 129.738281 19.445312 "/>
<path fill-rule="nonzero" fill="rgb(97.254902%, 46.27451%, 42.745098%)" fill-opacity="0.698039" stroke-width="0.708661" stroke-linecap="round" stroke-linejoin="round" stroke="rgb(0%, 0%, 0%)" stroke-opacity="0.698039" stroke-miterlimit="10" d="M 131.359375 19.445312 C 131.359375 20.789062 129.34375 20.789062 129.34375 19.445312 C 129.34375 18.101562 131.359375 18.101562 131.359375 19.445312 "/>
<path fill-rule="nonzero" fill="rgb(97.254902%, 46.27451%, 42.745098%)" fill-opacity="0.698039" stroke-width="0.708661" stroke-linecap="round" stroke-linejoin="round" stroke="rgb(0%, 0%, 0%)" stroke-opacity="0.698039" stroke-miterlimit="10" d="M 132.46875 19.445312 C 132.46875 20.628906 130.695312 20.628906 130.695312 19.445312 C 130.695312 18.261719 132.46875 18.261719 132.46875 19.445312 "/>
<path fill-rule="nonzero" fill="rgb(97.254902%, 46.27451%, 42.745098%)" fill-opacity="0.698039" stroke-width="0.708661" stroke-linecap="round" stroke-linejoin="round" stroke="rgb(0%, 0%, 0%)" stroke-opacity="0.698039" stroke-miterlimit="10" d="M 133.824219 59.351562 C 133.824219 60.695312 131.808594 60.695312 131.808594 59.351562 C 131.808594 58.007812 133.824219 58.007812 133.824219 59.351562 "/>
<path fill-rule="nonzero" fill="rgb(97.254902%, 46.27451%, 42.745098%)" fill-opacity="0.698039" stroke-width="0.708661" stroke-linecap="round" stroke-linejoin="round" stroke="rgb(0%, 0%, 0%)" stroke-opacity="0.698039" stroke-miterlimit="10" d="M 134.777344 19.445312 C 134.777344 20.421875 133.316406 20.421875 133.316406 19.445312 C 133.316406 18.472656 134.777344 18.472656 134.777344 19.445312 "/>
<path fill-rule="nonzero" fill="rgb(97.254902%, 46.27451%, 42.745098%)" fill-opacity="0.698039" stroke-width="0.708661" stroke-linecap="round" stroke-linejoin="round" stroke="rgb(0%, 0%, 0%)" stroke-opacity="0.698039" stroke-miterlimit="10" d="M 136.167969 19.445312 C 136.167969 20.628906 134.390625 20.628906 134.390625 19.445312 C 134.390625 18.261719 136.167969 18.261719 136.167969 19.445312 "/>
<path fill-rule="nonzero" fill="rgb(97.254902%, 46.27451%, 42.745098%)" fill-opacity="0.698039" stroke-width="0.708661" stroke-linecap="round" stroke-linejoin="round" stroke="rgb(0%, 0%, 0%)" stroke-opacity="0.698039" stroke-miterlimit="10" d="M 137.460938 19.445312 C 137.460938 20.714844 135.558594 20.714844 135.558594 19.445312 C 135.558594 18.179688 137.460938 18.179688 137.460938 19.445312 "/>
<path fill-rule="nonzero" fill="rgb(97.254902%, 46.27451%, 42.745098%)" fill-opacity="0.698039" stroke-width="0.708661" stroke-linecap="round" stroke-linejoin="round" stroke="rgb(0%, 0%, 0%)" stroke-opacity="0.698039" stroke-miterlimit="10" d="M 138.558594 19.445312 C 138.558594 20.535156 136.925781 20.535156 136.925781 19.445312 C 136.925781 18.359375 138.558594 18.359375 138.558594 19.445312 "/>
<path fill-rule="nonzero" fill="rgb(97.254902%, 46.27451%, 42.745098%)" fill-opacity="0.698039" stroke-width="0.708661" stroke-linecap="round" stroke-linejoin="round" stroke="rgb(0%, 0%, 0%)" stroke-opacity="0.698039" stroke-miterlimit="10" d="M 139.863281 75.316406 C 139.863281 76.5 138.085938 76.5 138.085938 75.316406 C 138.085938 74.132812 139.863281 74.132812 139.863281 75.316406 "/>
<path fill-rule="nonzero" fill="rgb(97.254902%, 46.27451%, 42.745098%)" fill-opacity="0.698039" stroke-width="0.708661" stroke-linecap="round" stroke-linejoin="round" stroke="rgb(0%, 0%, 0%)" stroke-opacity="0.698039" stroke-miterlimit="10" d="M 141.40625 19.445312 C 141.40625 21.042969 139.007812 21.042969 139.007812 19.445312 C 139.007812 17.847656 141.40625 17.847656 141.40625 19.445312 "/>
<path fill-rule="nonzero" fill="rgb(97.254902%, 46.27451%, 42.745098%)" fill-opacity="0.698039" stroke-width="0.708661" stroke-linecap="round" stroke-linejoin="round" stroke="rgb(0%, 0%, 0%)" stroke-opacity="0.698039" stroke-miterlimit="10" d="M 142.328125 19.445312 C 142.328125 20.628906 140.550781 20.628906 140.550781 19.445312 C 140.550781 18.261719 142.328125 18.261719 142.328125 19.445312 "/>
<path fill-rule="nonzero" fill="rgb(97.254902%, 46.27451%, 42.745098%)" fill-opacity="0.698039" stroke-width="0.708661" stroke-linecap="round" stroke-linejoin="round" stroke="rgb(0%, 0%, 0%)" stroke-opacity="0.698039" stroke-miterlimit="10" d="M 143.292969 19.445312 C 143.292969 20.273438 142.050781 20.273438 142.050781 19.445312 C 142.050781 18.617188 143.292969 18.617188 143.292969 19.445312 "/>
<path fill-rule="nonzero" fill="rgb(97.254902%, 46.27451%, 42.745098%)" fill-opacity="0.698039" stroke-width="0.708661" stroke-linecap="round" stroke-linejoin="round" stroke="rgb(0%, 0%, 0%)" stroke-opacity="0.698039" stroke-miterlimit="10" d="M 144.855469 19.445312 C 144.855469 20.714844 142.953125 20.714844 142.953125 19.445312 C 142.953125 18.179688 144.855469 18.179688 144.855469 19.445312 "/>
<path fill-rule="nonzero" fill="rgb(97.254902%, 46.27451%, 42.745098%)" fill-opacity="0.698039" stroke-width="0.708661" stroke-linecap="round" stroke-linejoin="round" stroke="rgb(0%, 0%, 0%)" stroke-opacity="0.698039" stroke-miterlimit="10" d="M 146.085938 66.003906 C 146.085938 67.273438 144.183594 67.273438 144.183594 66.003906 C 144.183594 64.734375 146.085938 64.734375 146.085938 66.003906 "/>
<path fill-rule="nonzero" fill="rgb(97.254902%, 46.27451%, 42.745098%)" fill-opacity="0.698039" stroke-width="0.708661" stroke-linecap="round" stroke-linejoin="round" stroke="rgb(0%, 0%, 0%)" stroke-opacity="0.698039" stroke-miterlimit="10" d="M 147.183594 19.445312 C 147.183594 20.535156 145.550781 20.535156 145.550781 19.445312 C 145.550781 18.359375 147.183594 18.359375 147.183594 19.445312 "/>
<path fill-rule="nonzero" fill="rgb(97.254902%, 46.27451%, 42.745098%)" fill-opacity="0.698039" stroke-width="0.708661" stroke-linecap="round" stroke-linejoin="round" stroke="rgb(0%, 0%, 0%)" stroke-opacity="0.698039" stroke-miterlimit="10" d="M 148.488281 19.445312 C 148.488281 20.628906 146.710938 20.628906 146.710938 19.445312 C 146.710938 18.261719 148.488281 18.261719 148.488281 19.445312 "/>
<path fill-rule="nonzero" fill="rgb(97.254902%, 46.27451%, 42.745098%)" fill-opacity="0.698039" stroke-width="0.708661" stroke-linecap="round" stroke-linejoin="round" stroke="rgb(0%, 0%, 0%)" stroke-opacity="0.698039" stroke-miterlimit="10" d="M 149.5625 19.445312 C 149.5625 20.421875 148.101562 20.421875 148.101562 19.445312 C 148.101562 18.472656 149.5625 18.472656 149.5625 19.445312 "/>
<path fill-rule="nonzero" fill="rgb(97.254902%, 46.27451%, 42.745098%)" fill-opacity="0.698039" stroke-width="0.708661" stroke-linecap="round" stroke-linejoin="round" stroke="rgb(0%, 0%, 0%)" stroke-opacity="0.698039" stroke-miterlimit="10" d="M 150.878906 19.445312 C 150.878906 20.535156 149.246094 20.535156 149.246094 19.445312 C 149.246094 18.359375 150.878906 18.359375 150.878906 19.445312 "/>
<path fill-rule="nonzero" fill="rgb(97.254902%, 46.27451%, 42.745098%)" fill-opacity="0.698039" stroke-width="0.708661" stroke-linecap="round" stroke-linejoin="round" stroke="rgb(0%, 0%, 0%)" stroke-opacity="0.698039" stroke-miterlimit="10" d="M 152.183594 19.445312 C 152.183594 20.628906 150.40625 20.628906 150.40625 19.445312 C 150.40625 18.261719 152.183594 18.261719 152.183594 19.445312 "/>
<path fill-rule="nonzero" fill="rgb(97.254902%, 46.27451%, 42.745098%)" fill-opacity="0.698039" stroke-width="0.708661" stroke-linecap="round" stroke-linejoin="round" stroke="rgb(0%, 0%, 0%)" stroke-opacity="0.698039" stroke-miterlimit="10" d="M 153.535156 19.445312 C 153.535156 20.789062 151.519531 20.789062 151.519531 19.445312 C 151.519531 18.101562 153.535156 18.101562 153.535156 19.445312 "/>
<path fill-rule="nonzero" fill="rgb(97.254902%, 46.27451%, 42.745098%)" fill-opacity="0.698039" stroke-width="0.708661" stroke-linecap="round" stroke-linejoin="round" stroke="rgb(0%, 0%, 0%)" stroke-opacity="0.698039" stroke-miterlimit="10" d="M 154.765625 19.445312 C 154.765625 20.789062 152.75 20.789062 152.75 19.445312 C 152.75 18.101562 154.765625 18.101562 154.765625 19.445312 "/>
<path fill-rule="nonzero" fill="rgb(97.254902%, 46.27451%, 42.745098%)" fill-opacity="0.698039" stroke-width="0.708661" stroke-linecap="round" stroke-linejoin="round" stroke="rgb(0%, 0%, 0%)" stroke-opacity="0.698039" stroke-miterlimit="10" d="M 155.878906 19.445312 C 155.878906 20.628906 154.105469 20.628906 154.105469 19.445312 C 154.105469 18.261719 155.878906 18.261719 155.878906 19.445312 "/>
<path fill-rule="nonzero" fill="rgb(97.254902%, 46.27451%, 42.745098%)" fill-opacity="0.698039" stroke-width="0.708661" stroke-linecap="round" stroke-linejoin="round" stroke="rgb(0%, 0%, 0%)" stroke-opacity="0.698039" stroke-miterlimit="10" d="M 157.109375 19.445312 C 157.109375 20.628906 155.335938 20.628906 155.335938 19.445312 C 155.335938 18.261719 157.109375 18.261719 157.109375 19.445312 "/>
<path fill-rule="nonzero" fill="rgb(97.254902%, 46.27451%, 42.745098%)" fill-opacity="0.698039" stroke-width="0.708661" stroke-linecap="round" stroke-linejoin="round" stroke="rgb(0%, 0%, 0%)" stroke-opacity="0.698039" stroke-miterlimit="10" d="M 158.34375 19.445312 C 158.34375 20.628906 156.566406 20.628906 156.566406 19.445312 C 156.566406 18.261719 158.34375 18.261719 158.34375 19.445312 "/>
<path fill-rule="nonzero" fill="rgb(97.254902%, 46.27451%, 42.745098%)" fill-opacity="0.698039" stroke-width="0.708661" stroke-linecap="round" stroke-linejoin="round" stroke="rgb(0%, 0%, 0%)" stroke-opacity="0.698039" stroke-miterlimit="10" d="M 159.417969 19.445312 C 159.417969 20.421875 157.957031 20.421875 157.957031 19.445312 C 157.957031 18.472656 159.417969 18.472656 159.417969 19.445312 "/>
<path fill-rule="nonzero" fill="rgb(97.254902%, 46.27451%, 42.745098%)" fill-opacity="0.698039" stroke-width="0.708661" stroke-linecap="round" stroke-linejoin="round" stroke="rgb(0%, 0%, 0%)" stroke-opacity="0.698039" stroke-miterlimit="10" d="M 160.652344 19.445312 C 160.652344 20.421875 159.1875 20.421875 159.1875 19.445312 C 159.1875 18.472656 160.652344 18.472656 160.652344 19.445312 "/>
<path fill-rule="nonzero" fill="rgb(97.254902%, 46.27451%, 42.745098%)" fill-opacity="0.698039" stroke-width="0.708661" stroke-linecap="round" stroke-linejoin="round" stroke="rgb(0%, 0%, 0%)" stroke-opacity="0.698039" stroke-miterlimit="10" d="M 161.96875 19.445312 C 161.96875 20.535156 160.335938 20.535156 160.335938 19.445312 C 160.335938 18.359375 161.96875 18.359375 161.96875 19.445312 "/>
<path fill-rule="nonzero" fill="rgb(97.254902%, 46.27451%, 42.745098%)" fill-opacity="0.698039" stroke-width="0.708661" stroke-linecap="round" stroke-linejoin="round" stroke="rgb(0%, 0%, 0%)" stroke-opacity="0.698039" stroke-miterlimit="10" d="M 163.273438 19.445312 C 163.273438 20.628906 161.496094 20.628906 161.496094 19.445312 C 161.496094 18.261719 163.273438 18.261719 163.273438 19.445312 "/>
<path fill-rule="nonzero" fill="rgb(97.254902%, 46.27451%, 42.745098%)" fill-opacity="0.698039" stroke-width="0.708661" stroke-linecap="round" stroke-linejoin="round" stroke="rgb(0%, 0%, 0%)" stroke-opacity="0.698039" stroke-miterlimit="10" d="M 164.347656 19.445312 C 164.347656 20.421875 162.882812 20.421875 162.882812 19.445312 C 162.882812 18.472656 164.347656 18.472656 164.347656 19.445312 "/>
<path fill-rule="nonzero" fill="rgb(97.254902%, 46.27451%, 42.745098%)" fill-opacity="0.698039" stroke-width="0.708661" stroke-linecap="round" stroke-linejoin="round" stroke="rgb(0%, 0%, 0%)" stroke-opacity="0.698039" stroke-miterlimit="10" d="M 165.578125 19.445312 C 165.578125 20.421875 164.117188 20.421875 164.117188 19.445312 C 164.117188 18.472656 165.578125 18.472656 165.578125 19.445312 "/>
<path fill-rule="nonzero" fill="rgb(97.254902%, 46.27451%, 42.745098%)" fill-opacity="0.698039" stroke-width="0.708661" stroke-linecap="round" stroke-linejoin="round" stroke="rgb(0%, 0%, 0%)" stroke-opacity="0.698039" stroke-miterlimit="10" d="M 166.894531 19.445312 C 166.894531 20.535156 165.261719 20.535156 165.261719 19.445312 C 165.261719 18.359375 166.894531 18.359375 166.894531 19.445312 "/>
<path fill-rule="nonzero" fill="rgb(97.254902%, 46.27451%, 42.745098%)" fill-opacity="0.698039" stroke-width="0.708661" stroke-linecap="round" stroke-linejoin="round" stroke="rgb(0%, 0%, 0%)" stroke-opacity="0.698039" stroke-miterlimit="10" d="M 168.042969 19.445312 C 168.042969 20.421875 166.582031 20.421875 166.582031 19.445312 C 166.582031 18.472656 168.042969 18.472656 168.042969 19.445312 "/>
<path fill-rule="nonzero" fill="rgb(97.254902%, 46.27451%, 42.745098%)" fill-opacity="0.698039" stroke-width="0.708661" stroke-linecap="round" stroke-linejoin="round" stroke="rgb(0%, 0%, 0%)" stroke-opacity="0.698039" stroke-miterlimit="10" d="M 169.359375 19.445312 C 169.359375 20.535156 167.726562 20.535156 167.726562 19.445312 C 167.726562 18.359375 169.359375 18.359375 169.359375 19.445312 "/>
<path fill-rule="nonzero" fill="rgb(97.254902%, 46.27451%, 42.745098%)" fill-opacity="0.698039" stroke-width="0.708661" stroke-linecap="round" stroke-linejoin="round" stroke="rgb(0%, 0%, 0%)" stroke-opacity="0.698039" stroke-miterlimit="10" d="M 170.277344 298.789062 C 170.277344 299.457031 169.277344 299.457031 169.277344 298.789062 C 169.277344 298.125 170.277344 298.125 170.277344 298.789062 "/>
<path fill-rule="nonzero" fill="rgb(97.254902%, 46.27451%, 42.745098%)" fill-opacity="0.698039" stroke-width="0.708661" stroke-linecap="round" stroke-linejoin="round" stroke="rgb(0%, 0%, 0%)" stroke-opacity="0.698039" stroke-miterlimit="10" d="M 171.628906 19.445312 C 171.628906 20.273438 170.386719 20.273438 170.386719 19.445312 C 170.386719 18.617188 171.628906 18.617188 171.628906 19.445312 "/>
<path fill-rule="nonzero" fill="rgb(97.254902%, 46.27451%, 42.745098%)" fill-opacity="0.698039" stroke-width="0.708661" stroke-linecap="round" stroke-linejoin="round" stroke="rgb(0%, 0%, 0%)" stroke-opacity="0.698039" stroke-miterlimit="10" d="M 172.738281 298.789062 C 172.738281 299.457031 171.738281 299.457031 171.738281 298.789062 C 171.738281 298.125 172.738281 298.125 172.738281 298.789062 "/>
<path fill-rule="nonzero" fill="rgb(97.254902%, 46.27451%, 42.745098%)" fill-opacity="0.698039" stroke-width="0.708661" stroke-linecap="round" stroke-linejoin="round" stroke="rgb(0%, 0%, 0%)" stroke-opacity="0.698039" stroke-miterlimit="10" d="M 174.203125 19.445312 C 174.203125 20.421875 172.742188 20.421875 172.742188 19.445312 C 172.742188 18.472656 174.203125 18.472656 174.203125 19.445312 "/>
<path fill-rule="nonzero" fill="rgb(97.254902%, 46.27451%, 42.745098%)" fill-opacity="0.698039" stroke-width="0.708661" stroke-linecap="round" stroke-linejoin="round" stroke="rgb(0%, 0%, 0%)" stroke-opacity="0.698039" stroke-miterlimit="10" d="M 175.4375 19.445312 C 175.4375 20.421875 173.972656 20.421875 173.972656 19.445312 C 173.972656 18.472656 175.4375 18.472656 175.4375 19.445312 "/>
<path fill-rule="nonzero" fill="rgb(97.254902%, 46.27451%, 42.745098%)" fill-opacity="0.698039" stroke-width="0.708661" stroke-linecap="round" stroke-linejoin="round" stroke="rgb(0%, 0%, 0%)" stroke-opacity="0.698039" stroke-miterlimit="10" d="M 176.558594 19.445312 C 176.558594 20.273438 175.316406 20.273438 175.316406 19.445312 C 175.316406 18.617188 176.558594 18.617188 176.558594 19.445312 "/>
<path fill-rule="nonzero" fill="rgb(97.254902%, 46.27451%, 42.745098%)" fill-opacity="0.698039" stroke-width="0.708661" stroke-linecap="round" stroke-linejoin="round" stroke="rgb(0%, 0%, 0%)" stroke-opacity="0.698039" stroke-miterlimit="10" d="M 177.984375 19.445312 C 177.984375 20.535156 176.351562 20.535156 176.351562 19.445312 C 176.351562 18.359375 177.984375 18.359375 177.984375 19.445312 "/>
<path fill-rule="nonzero" fill="rgb(97.254902%, 46.27451%, 42.745098%)" fill-opacity="0.698039" stroke-width="0.708661" stroke-linecap="round" stroke-linejoin="round" stroke="rgb(0%, 0%, 0%)" stroke-opacity="0.698039" stroke-miterlimit="10" d="M 178.898438 298.789062 C 178.898438 299.457031 177.898438 299.457031 177.898438 298.789062 C 177.898438 298.125 178.898438 298.125 178.898438 298.789062 "/>
<path fill-rule="nonzero" fill="rgb(97.254902%, 46.27451%, 42.745098%)" fill-opacity="0.698039" stroke-width="0.708661" stroke-linecap="round" stroke-linejoin="round" stroke="rgb(0%, 0%, 0%)" stroke-opacity="0.698039" stroke-miterlimit="10" d="M 180.253906 19.445312 C 180.253906 20.273438 179.011719 20.273438 179.011719 19.445312 C 179.011719 18.617188 180.253906 18.617188 180.253906 19.445312 "/>
<path fill-rule="nonzero" fill="rgb(97.254902%, 46.27451%, 42.745098%)" fill-opacity="0.698039" stroke-width="0.708661" stroke-linecap="round" stroke-linejoin="round" stroke="rgb(0%, 0%, 0%)" stroke-opacity="0.698039" stroke-miterlimit="10" d="M 181.363281 298.789062 C 181.363281 299.457031 180.363281 299.457031 180.363281 298.789062 C 180.363281 298.125 181.363281 298.125 181.363281 298.789062 "/>
<path fill-rule="nonzero" fill="rgb(97.254902%, 46.27451%, 42.745098%)" fill-opacity="0.698039" stroke-width="0.708661" stroke-linecap="round" stroke-linejoin="round" stroke="rgb(0%, 0%, 0%)" stroke-opacity="0.698039" stroke-miterlimit="10" d="M 182.71875 19.445312 C 182.71875 20.273438 181.476562 20.273438 181.476562 19.445312 C 181.476562 18.617188 182.71875 18.617188 182.71875 19.445312 "/>
<path fill-rule="nonzero" fill="rgb(97.254902%, 46.27451%, 42.745098%)" fill-opacity="0.698039" stroke-width="0.708661" stroke-linecap="round" stroke-linejoin="round" stroke="rgb(0%, 0%, 0%)" stroke-opacity="0.698039" stroke-miterlimit="10" d="M 183.949219 19.445312 C 183.949219 20.273438 182.707031 20.273438 182.707031 19.445312 C 182.707031 18.617188 183.949219 18.617188 183.949219 19.445312 "/>
<path fill-rule="nonzero" fill="rgb(97.254902%, 46.27451%, 42.745098%)" fill-opacity="0.698039" stroke-width="0.708661" stroke-linecap="round" stroke-linejoin="round" stroke="rgb(0%, 0%, 0%)" stroke-opacity="0.698039" stroke-miterlimit="10" d="M 185.058594 298.789062 C 185.058594 299.457031 184.058594 299.457031 184.058594 298.789062 C 184.058594 298.125 185.058594 298.125 185.058594 298.789062 "/>
<path fill-rule="nonzero" fill="rgb(97.254902%, 46.27451%, 42.745098%)" fill-opacity="0.698039" stroke-width="0.708661" stroke-linecap="round" stroke-linejoin="round" stroke="rgb(0%, 0%, 0%)" stroke-opacity="0.698039" stroke-miterlimit="10" d="M 186.292969 298.789062 C 186.292969 299.457031 185.292969 299.457031 185.292969 298.789062 C 185.292969 298.125 186.292969 298.125 186.292969 298.789062 "/>
<path fill-rule="nonzero" fill="rgb(97.254902%, 46.27451%, 42.745098%)" fill-opacity="0.698039" stroke-width="0.708661" stroke-linecap="round" stroke-linejoin="round" stroke="rgb(0%, 0%, 0%)" stroke-opacity="0.698039" stroke-miterlimit="10" d="M 187.523438 298.789062 C 187.523438 299.457031 186.523438 299.457031 186.523438 298.789062 C 186.523438 298.125 187.523438 298.125 187.523438 298.789062 "/>
<path fill-rule="nonzero" fill="rgb(97.254902%, 46.27451%, 42.745098%)" fill-opacity="0.698039" stroke-width="0.708661" stroke-linecap="round" stroke-linejoin="round" stroke="rgb(0%, 0%, 0%)" stroke-opacity="0.698039" stroke-miterlimit="10" d="M 188.878906 19.445312 C 188.878906 20.273438 187.636719 20.273438 187.636719 19.445312 C 187.636719 18.617188 188.878906 18.617188 188.878906 19.445312 "/>
<path fill-rule="nonzero" fill="rgb(97.254902%, 46.27451%, 42.745098%)" fill-opacity="0.698039" stroke-width="0.708661" stroke-linecap="round" stroke-linejoin="round" stroke="rgb(0%, 0%, 0%)" stroke-opacity="0.698039" stroke-miterlimit="10" d="M 189.988281 298.789062 C 189.988281 299.457031 188.988281 299.457031 188.988281 298.789062 C 188.988281 298.125 189.988281 298.125 189.988281 298.789062 "/>
<path fill-rule="nonzero" fill="rgb(97.254902%, 46.27451%, 42.745098%)" fill-opacity="0.698039" stroke-width="0.708661" stroke-linecap="round" stroke-linejoin="round" stroke="rgb(0%, 0%, 0%)" stroke-opacity="0.698039" stroke-miterlimit="10" d="M 191.21875 298.789062 C 191.21875 299.457031 190.21875 299.457031 190.21875 298.789062 C 190.21875 298.125 191.21875 298.125 191.21875 298.789062 "/>
<path fill-rule="nonzero" fill="rgb(97.254902%, 46.27451%, 42.745098%)" fill-opacity="0.698039" stroke-width="0.708661" stroke-linecap="round" stroke-linejoin="round" stroke="rgb(0%, 0%, 0%)" stroke-opacity="0.698039" stroke-miterlimit="10" d="M 192.453125 298.789062 C 192.453125 299.457031 191.453125 299.457031 191.453125 298.789062 C 191.453125 298.125 192.453125 298.125 192.453125 298.789062 "/>
<path fill-rule="nonzero" fill="rgb(97.254902%, 46.27451%, 42.745098%)" fill-opacity="0.698039" stroke-width="0.708661" stroke-linecap="round" stroke-linejoin="round" stroke="rgb(0%, 0%, 0%)" stroke-opacity="0.698039" stroke-miterlimit="10" d="M 193.683594 298.789062 C 193.683594 299.457031 192.683594 299.457031 192.683594 298.789062 C 192.683594 298.125 193.683594 298.125 193.683594 298.789062 "/>
<path fill-rule="nonzero" fill="rgb(97.254902%, 46.27451%, 42.745098%)" fill-opacity="0.698039" stroke-width="0.708661" stroke-linecap="round" stroke-linejoin="round" stroke="rgb(0%, 0%, 0%)" stroke-opacity="0.698039" stroke-miterlimit="10" d="M 194.917969 298.789062 C 194.917969 299.457031 193.917969 299.457031 193.917969 298.789062 C 193.917969 298.125 194.917969 298.125 194.917969 298.789062 "/>
<path fill-rule="nonzero" fill="rgb(97.254902%, 46.27451%, 42.745098%)" fill-opacity="0.698039" stroke-width="0.708661" stroke-linecap="round" stroke-linejoin="round" stroke="rgb(0%, 0%, 0%)" stroke-opacity="0.698039" stroke-miterlimit="10" d="M 196.148438 298.789062 C 196.148438 299.457031 195.148438 299.457031 195.148438 298.789062 C 195.148438 298.125 196.148438 298.125 196.148438 298.789062 "/>
<path fill-rule="nonzero" fill="rgb(97.254902%, 46.27451%, 42.745098%)" fill-opacity="0.698039" stroke-width="0.708661" stroke-linecap="round" stroke-linejoin="round" stroke="rgb(0%, 0%, 0%)" stroke-opacity="0.698039" stroke-miterlimit="10" d="M 197.5 19.445312 C 197.5 20.273438 196.261719 20.273438 196.261719 19.445312 C 196.261719 18.617188 197.5 18.617188 197.5 19.445312 "/>
<path fill-rule="nonzero" fill="rgb(97.254902%, 46.27451%, 42.745098%)" fill-opacity="0.698039" stroke-width="0.708661" stroke-linecap="round" stroke-linejoin="round" stroke="rgb(0%, 0%, 0%)" stroke-opacity="0.698039" stroke-miterlimit="10" d="M 198.613281 298.789062 C 198.613281 299.457031 197.613281 299.457031 197.613281 298.789062 C 197.613281 298.125 198.613281 298.125 198.613281 298.789062 "/>
<path fill-rule="nonzero" fill="rgb(97.254902%, 46.27451%, 42.745098%)" fill-opacity="0.698039" stroke-width="0.708661" stroke-linecap="round" stroke-linejoin="round" stroke="rgb(0%, 0%, 0%)" stroke-opacity="0.698039" stroke-miterlimit="10" d="M 199.84375 298.789062 C 199.84375 299.457031 198.84375 299.457031 198.84375 298.789062 C 198.84375 298.125 199.84375 298.125 199.84375 298.789062 "/>
<path fill-rule="nonzero" fill="rgb(97.254902%, 46.27451%, 42.745098%)" fill-opacity="0.698039" stroke-width="0.708661" stroke-linecap="round" stroke-linejoin="round" stroke="rgb(0%, 0%, 0%)" stroke-opacity="0.698039" stroke-miterlimit="10" d="M 201.078125 298.789062 C 201.078125 299.457031 200.078125 299.457031 200.078125 298.789062 C 200.078125 298.125 201.078125 298.125 201.078125 298.789062 "/>
<path fill-rule="nonzero" fill="rgb(97.254902%, 46.27451%, 42.745098%)" fill-opacity="0.698039" stroke-width="0.708661" stroke-linecap="round" stroke-linejoin="round" stroke="rgb(0%, 0%, 0%)" stroke-opacity="0.698039" stroke-miterlimit="10" d="M 202.308594 298.789062 C 202.308594 299.457031 201.308594 299.457031 201.308594 298.789062 C 201.308594 298.125 202.308594 298.125 202.308594 298.789062 "/>
<path fill-rule="nonzero" fill="rgb(97.254902%, 46.27451%, 42.745098%)" fill-opacity="0.698039" stroke-width="0.708661" stroke-linecap="round" stroke-linejoin="round" stroke="rgb(0%, 0%, 0%)" stroke-opacity="0.698039" stroke-miterlimit="10" d="M 203.542969 298.789062 C 203.542969 299.457031 202.542969 299.457031 202.542969 298.789062 C 202.542969 298.125 203.542969 298.125 203.542969 298.789062 "/>
<path fill-rule="nonzero" fill="rgb(97.254902%, 46.27451%, 42.745098%)" fill-opacity="0.698039" stroke-width="0.708661" stroke-linecap="round" stroke-linejoin="round" stroke="rgb(0%, 0%, 0%)" stroke-opacity="0.698039" stroke-miterlimit="10" d="M 204.773438 298.789062 C 204.773438 299.457031 203.773438 299.457031 203.773438 298.789062 C 203.773438 298.125 204.773438 298.125 204.773438 298.789062 "/>
<path fill-rule="nonzero" fill="rgb(97.254902%, 46.27451%, 42.745098%)" fill-opacity="0.698039" stroke-width="0.708661" stroke-linecap="round" stroke-linejoin="round" stroke="rgb(0%, 0%, 0%)" stroke-opacity="0.698039" stroke-miterlimit="10" d="M 206.003906 298.789062 C 206.003906 299.457031 205.003906 299.457031 205.003906 298.789062 C 205.003906 298.125 206.003906 298.125 206.003906 298.789062 "/>
<path fill-rule="nonzero" fill="rgb(97.254902%, 46.27451%, 42.745098%)" fill-opacity="0.698039" stroke-width="0.708661" stroke-linecap="round" stroke-linejoin="round" stroke="rgb(0%, 0%, 0%)" stroke-opacity="0.698039" stroke-miterlimit="10" d="M 207.238281 298.789062 C 207.238281 299.457031 206.238281 299.457031 206.238281 298.789062 C 206.238281 298.125 207.238281 298.125 207.238281 298.789062 "/>
<path fill-rule="nonzero" fill="rgb(97.254902%, 46.27451%, 42.745098%)" fill-opacity="0.698039" stroke-width="0.708661" stroke-linecap="round" stroke-linejoin="round" stroke="rgb(0%, 0%, 0%)" stroke-opacity="0.698039" stroke-miterlimit="10" d="M 208.46875 298.789062 C 208.46875 299.457031 207.46875 299.457031 207.46875 298.789062 C 207.46875 298.125 208.46875 298.125 208.46875 298.789062 "/>
<path fill-rule="nonzero" fill="rgb(97.254902%, 46.27451%, 42.745098%)" fill-opacity="0.698039" stroke-width="0.708661" stroke-linecap="round" stroke-linejoin="round" stroke="rgb(0%, 0%, 0%)" stroke-opacity="0.698039" stroke-miterlimit="10" d="M 209.824219 19.445312 C 209.824219 20.273438 208.582031 20.273438 208.582031 19.445312 C 208.582031 18.617188 209.824219 18.617188 209.824219 19.445312 "/>
<path fill="none" stroke-width="1.066978" stroke-linecap="butt" stroke-linejoin="round" stroke="rgb(97.254902%, 46.27451%, 42.745098%)" stroke-opacity="1" stroke-miterlimit="10" d="M 97.085938 64.648438 L 98.316406 62.359375 L 99.550781 60.167969 L 100.78125 58.070312 L 102.011719 56.066406 L 103.246094 54.148438 L 104.476562 52.320312 L 105.710938 50.574219 L 106.941406 48.910156 L 108.175781 47.324219 L 109.40625 45.8125 L 110.636719 44.378906 L 111.871094 43.015625 L 113.101562 41.71875 L 114.335938 40.488281 L 115.566406 39.320312 L 116.796875 38.210938 L 118.03125 37.160156 L 119.261719 36.164062 L 120.496094 35.222656 L 121.726562 34.328125 L 122.957031 33.484375 L 124.191406 32.683594 L 125.421875 31.929688 L 126.65625 31.214844 L 127.886719 30.539062 L 129.117188 29.902344 L 130.351562 29.296875 L 131.582031 28.730469 L 132.816406 28.191406 L 134.046875 27.683594 L 135.277344 27.207031 L 136.511719 26.753906 L 137.742188 26.328125 L 138.976562 25.925781 L 140.207031 25.546875 L 141.4375 25.191406 L 142.671875 24.851562 L 143.902344 24.535156 L 145.136719 24.238281 L 146.367188 23.957031 L 147.597656 23.691406 L 148.832031 23.441406 L 150.0625 23.203125 L 151.296875 22.984375 L 152.527344 22.773438 L 153.757812 22.578125 L 154.992188 22.390625 L 156.222656 22.21875 L 157.457031 22.054688 L 158.6875 21.898438 L 159.917969 21.753906 L 161.152344 21.617188 L 162.382812 21.488281 L 163.617188 21.367188 L 164.847656 21.253906 L 166.078125 21.144531 L 167.3125 21.042969 L 168.542969 20.949219 L 169.777344 20.859375 L 172.238281 20.695312 L 173.472656 20.621094 L 174.703125 20.550781 L 175.9375 20.488281 L 177.167969 20.425781 L 178.398438 20.367188 L 179.632812 20.3125 L 180.863281 20.261719 L 182.097656 20.210938 L 184.558594 20.125 L 185.792969 20.082031 L 187.023438 20.042969 L 188.257812 20.007812 L 190.71875 19.945312 L 191.953125 19.914062 L 193.183594 19.886719 L 194.417969 19.859375 L 196.878906 19.8125 L 198.113281 19.789062 L 199.34375 19.769531 L 200.578125 19.75 L 201.808594 19.734375 L 203.042969 19.714844 L 205.503906 19.683594 L 206.738281 19.671875 L 207.96875 19.65625 L 209.203125 19.644531 "/>
<g clip-path="url(#clip-15)">
<path fill="none" stroke-width="1.066978" stroke-linecap="round" stroke-linejoin="round" stroke="rgb(20%, 20%, 20%)" stroke-opacity="1" stroke-miterlimit="10" d="M 84.828125 312.757812 L 354.523438 312.757812 L 354.523438 5.480469 L 84.828125 5.480469 Z M 84.828125 312.757812 "/>
</g>
<g fill="rgb(30.196078%, 30.196078%, 30.196078%)" fill-opacity="1">
<use xlink:href="#glyph-0-0" x="48.757812" y="304.621094"/>
<use xlink:href="#glyph-0-1" x="57.653813" y="304.621094"/>
<use xlink:href="#glyph-0-0" x="62.101813" y="304.621094"/>
<use xlink:href="#glyph-0-0" x="70.997813" y="304.621094"/>
</g>
<g fill="rgb(30.196078%, 30.196078%, 30.196078%)" fill-opacity="1">
<use xlink:href="#glyph-0-0" x="48.757812" y="234.785156"/>
<use xlink:href="#glyph-0-1" x="57.653813" y="234.785156"/>
<use xlink:href="#glyph-0-2" x="62.101813" y="234.785156"/>
<use xlink:href="#glyph-0-3" x="70.997813" y="234.785156"/>
</g>
<g fill="rgb(30.196078%, 30.196078%, 30.196078%)" fill-opacity="1">
<use xlink:href="#glyph-0-0" x="48.757812" y="164.949219"/>
<use xlink:href="#glyph-0-1" x="57.653813" y="164.949219"/>
<use xlink:href="#glyph-0-3" x="62.101813" y="164.949219"/>
<use xlink:href="#glyph-0-0" x="70.997813" y="164.949219"/>
</g>
<g fill="rgb(30.196078%, 30.196078%, 30.196078%)" fill-opacity="1">
<use xlink:href="#glyph-0-0" x="48.757812" y="95.113281"/>
<use xlink:href="#glyph-0-1" x="57.653813" y="95.113281"/>
<use xlink:href="#glyph-0-4" x="62.101813" y="95.113281"/>
<use xlink:href="#glyph-0-3" x="70.997813" y="95.113281"/>
</g>
<g fill="rgb(30.196078%, 30.196078%, 30.196078%)" fill-opacity="1">
<use xlink:href="#glyph-0-5" x="48.757812" y="25.277344"/>
<use xlink:href="#glyph-0-1" x="57.653813" y="25.277344"/>
<use xlink:href="#glyph-0-0" x="62.101813" y="25.277344"/>
<use xlink:href="#glyph-0-0" x="70.997813" y="25.277344"/>
</g>
<path fill="none" stroke-width="1.066978" stroke-linecap="butt" stroke-linejoin="round" stroke="rgb(20%, 20%, 20%)" stroke-opacity="1" stroke-miterlimit="10" d="M 82.085938 298.789062 L 84.828125 298.789062 "/>
<path fill="none" stroke-width="1.066978" stroke-linecap="butt" stroke-linejoin="round" stroke="rgb(20%, 20%, 20%)" stroke-opacity="1" stroke-miterlimit="10" d="M 82.085938 228.953125 L 84.828125 228.953125 "/>
<path fill="none" stroke-width="1.066978" stroke-linecap="butt" stroke-linejoin="round" stroke="rgb(20%, 20%, 20%)" stroke-opacity="1" stroke-miterlimit="10" d="M 82.085938 159.117188 L 84.828125 159.117188 "/>
<path fill="none" stroke-width="1.066978" stroke-linecap="butt" stroke-linejoin="round" stroke="rgb(20%, 20%, 20%)" stroke-opacity="1" stroke-miterlimit="10" d="M 82.085938 89.28125 L 84.828125 89.28125 "/>
<path fill="none" stroke-width="1.066978" stroke-linecap="butt" stroke-linejoin="round" stroke="rgb(20%, 20%, 20%)" stroke-opacity="1" stroke-miterlimit="10" d="M 82.085938 19.445312 L 84.828125 19.445312 "/>
<path fill="none" stroke-width="1.066978" stroke-linecap="butt" stroke-linejoin="round" stroke="rgb(20%, 20%, 20%)" stroke-opacity="1" stroke-miterlimit="10" d="M 159.917969 315.496094 L 159.917969 312.757812 "/>
<path fill="none" stroke-width="1.066978" stroke-linecap="butt" stroke-linejoin="round" stroke="rgb(20%, 20%, 20%)" stroke-opacity="1" stroke-miterlimit="10" d="M 272.035156 315.496094 L 272.035156 312.757812 "/>
<g fill="rgb(30.196078%, 30.196078%, 30.196078%)" fill-opacity="1">
<use xlink:href="#glyph-0-6" x="147.46875" y="329.351562"/>
<use xlink:href="#glyph-0-7" x="158.14075" y="329.351562"/>
<use xlink:href="#glyph-0-8" x="167.03675" y="329.351562"/>
</g>
<g fill="rgb(30.196078%, 30.196078%, 30.196078%)" fill-opacity="1">
<use xlink:href="#glyph-0-9" x="261.8125" y="329.351562"/>
<use xlink:href="#glyph-0-10" x="269.8125" y="329.351562"/>
<use xlink:href="#glyph-0-11" x="278.7085" y="329.351562"/>
</g>
<g fill="rgb(0%, 0%, 0%)" fill-opacity="1">
<use xlink:href="#glyph-1-0" x="119.070312" y="350.160156"/>
<use xlink:href="#glyph-1-1" x="132.410313" y="350.160156"/>
<use xlink:href="#glyph-1-2" x="143.530313" y="350.160156"/>
<use xlink:href="#glyph-1-3" x="160.190313" y="350.160156"/>
<use xlink:href="#glyph-1-4" x="171.310313" y="350.160156"/>
<use xlink:href="#glyph-1-5" x="175.750313" y="350.160156"/>
<use xlink:href="#glyph-1-6" x="186.870313" y="350.160156"/>
<use xlink:href="#glyph-1-7" x="192.430313" y="350.160156"/>
<use xlink:href="#glyph-1-8" x="202.430313" y="350.160156"/>
<use xlink:href="#glyph-1-4" x="213.550313" y="350.160156"/>
<use xlink:href="#glyph-1-4" x="217.990313" y="350.160156"/>
<use xlink:href="#glyph-1-5" x="222.430313" y="350.160156"/>
<use xlink:href="#glyph-1-7" x="233.550313" y="350.160156"/>
<use xlink:href="#glyph-1-9" x="243.550313" y="350.160156"/>
<use xlink:href="#glyph-1-10" x="249.110313" y="350.160156"/>
<use xlink:href="#glyph-1-8" x="253.550313" y="350.160156"/>
<use xlink:href="#glyph-1-11" x="264.670313" y="350.160156"/>
<use xlink:href="#glyph-1-6" x="275.790313" y="350.160156"/>
<use xlink:href="#glyph-1-12" x="281.350313" y="350.160156"/>
<use xlink:href="#glyph-1-1" x="292.470313" y="350.160156"/>
<use xlink:href="#glyph-1-9" x="303.590313" y="350.160156"/>
<use xlink:href="#glyph-1-5" x="309.150313" y="350.160156"/>
</g>
<g fill="rgb(0%, 0%, 0%)" fill-opacity="1">
<use xlink:href="#glyph-2-0" x="20.058594" y="300.847656"/>
<use xlink:href="#glyph-2-1" x="20.058594" y="289.727656"/>
<use xlink:href="#glyph-2-2" x="20.058594" y="283.067656"/>
<use xlink:href="#glyph-2-3" x="20.058594" y="271.947656"/>
<use xlink:href="#glyph-2-4" x="20.058594" y="257.507656"/>
<use xlink:href="#glyph-2-5" x="20.058594" y="251.947656"/>
<use xlink:href="#glyph-2-6" x="20.058594" y="240.827656"/>
<use xlink:href="#glyph-2-7" x="20.058594" y="235.267656"/>
<use xlink:href="#glyph-2-8" x="20.058594" y="224.147656"/>
<use xlink:href="#glyph-2-9" x="20.058594" y="213.027656"/>
<use xlink:href="#glyph-2-7" x="20.058594" y="203.027656"/>
<use xlink:href="#glyph-2-10" x="20.058594" y="191.907656"/>
<use xlink:href="#glyph-2-4" x="20.058594" y="180.787656"/>
<use xlink:href="#glyph-2-7" x="20.058594" y="175.227656"/>
<use xlink:href="#glyph-2-0" x="20.058594" y="164.107656"/>
<use xlink:href="#glyph-2-11" x="20.058594" y="152.987656"/>
<use xlink:href="#glyph-2-6" x="20.058594" y="141.867656"/>
<use xlink:href="#glyph-2-12" x="20.058594" y="136.307656"/>
<use xlink:href="#glyph-2-13" x="20.058594" y="129.647656"/>
<use xlink:href="#glyph-2-14" x="20.058594" y="119.647656"/>
<use xlink:href="#glyph-2-6" x="20.058594" y="101.867656"/>
<use xlink:href="#glyph-2-15" x="20.058594" y="96.307656"/>
<use xlink:href="#glyph-2-11" x="20.058594" y="85.187656"/>
<use xlink:href="#glyph-2-1" x="20.058594" y="74.067656"/>
<use xlink:href="#glyph-2-6" x="20.058594" y="67.407656"/>
<use xlink:href="#glyph-2-8" x="20.058594" y="61.847656"/>
<use xlink:href="#glyph-2-7" x="20.058594" y="50.727656"/>
<use xlink:href="#glyph-2-16" x="20.058594" y="39.607656"/>
<use xlink:href="#glyph-2-17" x="20.058594" y="29.607656"/>
<use xlink:href="#glyph-2-6" x="20.058594" y="22.947656"/>
</g>
<g fill="rgb(0%, 0%, 0%)" fill-opacity="1">
<use xlink:href="#glyph-2-1" x="41.660156" y="316.386719"/>
<use xlink:href="#glyph-2-11" x="41.660156" y="309.726719"/>
<use xlink:href="#glyph-2-18" x="41.660156" y="298.606719"/>
<use xlink:href="#glyph-2-7" x="41.660156" y="294.166719"/>
<use xlink:href="#glyph-2-4" x="41.660156" y="283.046719"/>
<use xlink:href="#glyph-2-19" x="41.660156" y="277.486719"/>
<use xlink:href="#glyph-2-9" x="41.660156" y="273.046719"/>
<use xlink:href="#glyph-2-11" x="41.660156" y="263.046719"/>
<use xlink:href="#glyph-2-6" x="41.660156" y="251.926719"/>
<use xlink:href="#glyph-2-4" x="41.660156" y="246.366719"/>
<use xlink:href="#glyph-2-2" x="41.660156" y="240.806719"/>
<use xlink:href="#glyph-2-6" x="41.660156" y="229.686719"/>
<use xlink:href="#glyph-2-20" x="41.660156" y="224.126719"/>
<use xlink:href="#glyph-2-21" x="41.660156" y="210.786719"/>
<use xlink:href="#glyph-2-22" x="41.660156" y="198.566719"/>
<use xlink:href="#glyph-2-23" x="41.660156" y="183.006719"/>
<use xlink:href="#glyph-2-24" x="41.660156" y="177.446719"/>
<use xlink:href="#glyph-2-6" x="41.660156" y="166.326719"/>
<use xlink:href="#glyph-2-12" x="41.660156" y="160.766719"/>
<use xlink:href="#glyph-2-13" x="41.660156" y="154.106719"/>
<use xlink:href="#glyph-2-4" x="41.660156" y="144.106719"/>
<use xlink:href="#glyph-2-1" x="41.660156" y="138.546719"/>
<use xlink:href="#glyph-2-19" x="41.660156" y="131.886719"/>
<use xlink:href="#glyph-2-25" x="41.660156" y="127.446719"/>
<use xlink:href="#glyph-2-4" x="41.660156" y="117.446719"/>
<use xlink:href="#glyph-2-2" x="41.660156" y="111.886719"/>
<use xlink:href="#glyph-2-17" x="41.660156" y="100.766719"/>
<use xlink:href="#glyph-2-6" x="41.660156" y="94.106719"/>
<use xlink:href="#glyph-2-19" x="41.660156" y="88.546719"/>
<use xlink:href="#glyph-2-10" x="41.660156" y="84.106719"/>
<use xlink:href="#glyph-2-6" x="41.660156" y="72.986719"/>
<use xlink:href="#glyph-2-26" x="41.660156" y="67.426719"/>
<use xlink:href="#glyph-2-10" x="41.660156" y="51.866719"/>
<use xlink:href="#glyph-2-4" x="41.660156" y="40.746719"/>
<use xlink:href="#glyph-2-7" x="41.660156" y="35.186719"/>
<use xlink:href="#glyph-2-1" x="41.660156" y="24.066719"/>
<use xlink:href="#glyph-2-19" x="41.660156" y="17.406719"/>
<use xlink:href="#glyph-2-2" x="41.660156" y="12.966719"/>
</g>
<g fill="rgb(0%, 0%, 0%)" fill-opacity="1">
<use xlink:href="#glyph-3-0" x="148.390625" y="40.582031"/>
<use xlink:href="#glyph-3-1" x="156.394625" y="40.582031"/>
<use xlink:href="#glyph-3-2" x="163.726625" y="40.582031"/>
<use xlink:href="#glyph-3-3" x="173.062625" y="40.582031"/>
<use xlink:href="#glyph-3-4" x="176.398625" y="40.582031"/>
<use xlink:href="#glyph-3-3" x="183.070625" y="40.582031"/>
<use xlink:href="#glyph-3-4" x="186.406625" y="40.582031"/>
<use xlink:href="#glyph-3-3" x="193.078625" y="40.582031"/>
<use xlink:href="#glyph-3-5" x="196.414625" y="40.582031"/>
<use xlink:href="#glyph-3-6" x="203.086625" y="40.582031"/>
<use xlink:href="#glyph-3-7" x="207.082625" y="40.582031"/>
<use xlink:href="#glyph-3-8" x="213.754625" y="40.582031"/>
<use xlink:href="#glyph-3-5" x="220.762625" y="40.582031"/>
<use xlink:href="#glyph-3-9" x="227.434625" y="40.582031"/>
<use xlink:href="#glyph-3-10" x="234.106625" y="40.582031"/>
<use xlink:href="#glyph-3-11" x="240.778625" y="40.582031"/>
<use xlink:href="#glyph-3-12" x="244.774625" y="40.582031"/>
<use xlink:href="#glyph-3-13" x="248.110625" y="40.582031"/>
<use xlink:href="#glyph-3-14" x="251.446625" y="40.582031"/>
<use xlink:href="#glyph-3-3" x="258.118625" y="40.582031"/>
<use xlink:href="#glyph-3-14" x="261.454625" y="40.582031"/>
<use xlink:href="#glyph-3-9" x="268.126625" y="40.582031"/>
<use xlink:href="#glyph-3-13" x="274.798625" y="40.582031"/>
<use xlink:href="#glyph-3-15" x="278.134625" y="40.582031"/>
<use xlink:href="#glyph-3-16" x="282.142625" y="40.582031"/>
<use xlink:href="#glyph-3-17" x="290.806625" y="40.582031"/>
<use xlink:href="#glyph-3-18" x="298.810625" y="40.582031"/>
<use xlink:href="#glyph-3-13" x="302.146625" y="40.582031"/>
<use xlink:href="#glyph-3-16" x="305.482625" y="40.582031"/>
<use xlink:href="#glyph-3-17" x="314.146625" y="40.582031"/>
<use xlink:href="#glyph-3-19" x="322.150625" y="40.582031"/>
</g>
</svg>
